<?xml version="1.0" encoding="utf-8"?>
<!-- Generator: Adobe Illustrator 22.0.0, SVG Export Plug-In . SVG Version: 6.00 Build 0)  -->
<svg version="1.1" id="Layer_1" xmlns="http://www.w3.org/2000/svg" xmlns:xlink="http://www.w3.org/1999/xlink" x="0px" y="0px"
	 viewBox="0 0 40 40" style="enable-background:new 0 0 40 40;" xml:space="preserve">
<style type="text/css">
	.st0{fill:url(#SVGID_1_);}
	.st1{fill:none;stroke:#FFFFFF;stroke-miterlimit:10;}
</style>
<linearGradient id="SVGID_1_" gradientUnits="userSpaceOnUse" x1="-12.1831" y1="-547.1784" x2="25.1086" y2="-547.1784" gradientTransform="matrix(0 1 -1 0 -527.1784 13.9581)">
	<stop  offset="0" style="stop-color:#C13EEF"/>
	<stop  offset="1" style="stop-color:#505198"/>
</linearGradient>
<path class="st0" d="M37,26.7V14.1c0-2.1-1.1-4.1-3-5.2L23,2.6c-1.9-1.1-4.1-1.1-6,0L6,8.9C4.1,10,3,12,3,14.1v12.6
	c0,2.1,1.1,4.1,3,5.2l11,6.3c1.9,1.1,4.1,1.1,6,0l11-6.3C35.8,30.8,37,28.9,37,26.7z"/>
<title>ftx--logo</title>
<g>
	<path class="st1" d="M28.9,26.8l-7.7,4.7c-0.6,0.4-1.5,0.4-2.1,0l-7.8-4.6c-0.6-0.4-1-1-1-1.8v-9.4c0-0.7,0.4-1.4,1-1.8L19,9.2
		c0.6-0.4,1.5-0.4,2.1,0l7.8,4.6c0.6,0.4,1,1,1,1.8V25C29.9,25.8,29.5,26.5,28.9,26.8z"/>
	<path class="st1" d="M25.7,24.9l-4.6,2.8c-0.6,0.4-1.5,0.4-2.1,0L14.5,25c-0.6-0.4-1-1-1-1.8v-5.6c0-0.7,0.4-1.4,1-1.8l4.6-2.8
		c0.6-0.4,1.5-0.4,2.1,0l4.6,2.7c0.6,0.4,1,1,1,1.8v5.6C26.7,23.9,26.4,24.6,25.7,24.9z"/>
	<path class="st1" d="M22.9,22.7L20.6,24c-0.3,0.2-0.7,0.2-1.1,0l-2.3-1.4c-0.3-0.2-0.5-0.5-0.5-0.9v-2.8c0-0.4,0.2-0.7,0.5-0.9
		l2.3-1.4c0.3-0.2,0.7-0.2,1.1,0l2.3,1.4c0.3,0.2,0.5,0.5,0.5,0.9v2.8C23.4,22.1,23.2,22.5,22.9,22.7z"/>
</g>
</svg>
