<?xml version="1.0" encoding="utf-8"?>
<!-- Generator: Adobe Illustrator 22.0.0, SVG Export Plug-In . SVG Version: 6.00 Build 0)  -->
<svg version="1.1" id="Layer_1" xmlns="http://www.w3.org/2000/svg" xmlns:xlink="http://www.w3.org/1999/xlink" x="0px" y="0px"
	 viewBox="0 0 40 40" style="enable-background:new 0 0 40 40;" xml:space="preserve">
<style type="text/css">
	.st0{fill:url(#SVGID_1_);}
	.st1{fill:#FFFFFF;}
	.st2{fill:url(#SVGID_2_);}
	.st3{fill:url(#SVGID_3_);}
	.st4{fill:url(#SVGID_4_);}
	.st5{fill:url(#SVGID_5_);}
	.st6{fill:url(#SVGID_6_);}
	.st7{fill:url(#SVGID_7_);}
</style>
<linearGradient id="SVGID_1_" gradientUnits="userSpaceOnUse" x1="438.5855" y1="2392.1802" x2="475.8755" y2="2392.1802" gradientTransform="matrix(6.123234e-17 1 1 -6.123234e-17 -2372.1802 -437.31)">
	<stop  offset="0" style="stop-color:#C8BAEC"/>
	<stop  offset="1" style="stop-color:#F9A6F4"/>
</linearGradient>
<path class="st0" d="M37,26.2V13.6c0-2.1-1.1-4.1-3-5.2L23,2.1c-1.8-1.1-4.2-1.1-6,0L6,8.4c-1.9,1.1-3,3.1-3,5.2v12.6
	c0,2.1,1.1,4.1,3,5.2l11,6.3c1.8,1.1,4.2,1.1,6,0l11-6.3C35.8,30.3,37,28.3,37,26.2z"/>
<g>
	<path class="st1" d="M17.6,17.2c0.3,0.1,0.6,0.3,0.9,0.4c1.4,0.5,2.8,0.5,4.4-0.2c-0.3,0.2-0.6,0.5-0.8,0.7c-1,1.1-1.5,2.5-1.7,4.1
		C20.2,20,19.2,18.1,17.6,17.2z"/>
	
		<linearGradient id="SVGID_2_" gradientUnits="userSpaceOnUse" x1="11.7663" y1="33.3844" x2="24.1273" y2="24.7169" gradientTransform="matrix(1 0 0 -1 0 42)">
		<stop  offset="0.2433" style="stop-color:#FF51F4"/>
		<stop  offset="0.3942" style="stop-color:#FA77F9"/>
		<stop  offset="0.534" style="stop-color:#F692FC"/>
		<stop  offset="0.6575" style="stop-color:#F4A2FE"/>
		<stop  offset="0.7516" style="stop-color:#F3A8FF"/>
	</linearGradient>
	<path class="st2" d="M27.8,14.5c-2.1,1.3-3.6,2.3-4.9,2.9c-1.7,0.7-3.1,0.8-5.3-0.2l0,0c-1.2-0.5-2.6-1.3-4.3-2.4l0,0
		c-0.8-0.5-1.7-1.1-2.6-1.7c0.1-0.2,0.3-0.3,0.4-0.4l3.7-2.1c0.3-0.2,0.7-0.2,1,0l4.6,2.5l0.1,0C23.3,15,25.3,15.5,27.8,14.5z"/>
	
		<linearGradient id="SVGID_3_" gradientUnits="userSpaceOnUse" x1="19.6269" y1="10.4399" x2="15.7842" y2="26.5002" gradientTransform="matrix(1 0 0 -1 0 42)">
		<stop  offset="0.2381" style="stop-color:#A57DFF"/>
		<stop  offset="0.4008" style="stop-color:#C293FF"/>
		<stop  offset="0.616" style="stop-color:#E2ACFF"/>
		<stop  offset="0.7349" style="stop-color:#EEB5FF"/>
	</linearGradient>
	<path class="st3" d="M20.3,30.2c0-0.6,0-1.2,0-1.7l0,0l0,0l0,0l0,0c0-0.1,0-0.2,0-0.2c0,0,0,0,0-0.1c0-0.1,0-0.1,0-0.2
		c0-4.2,0-4.3,0.1-5.7c0,0,0,0,0,0c0,0,0,0,0,0c-0.1-2.1-1.2-4.1-2.8-4.9l0,0c-1.2-0.5-2.6-1.3-4.3-2.4c1.8,1.7,2.3,3.8,2.1,6.9v4.9
		c0,0.5,0.3,0.9,0.7,1.2l3.9,2.3C20.1,30.2,20.2,30.2,20.3,30.2L20.3,30.2z"/>
	
		<linearGradient id="SVGID_4_" gradientUnits="userSpaceOnUse" x1="20.0203" y1="16.9631" x2="31.799" y2="25.953" gradientTransform="matrix(1 0 0 -1 0 42)">
		<stop  offset="0" style="stop-color:#D7B2FF"/>
		<stop  offset="0.2103" style="stop-color:#D9AAFF"/>
		<stop  offset="0.5445" style="stop-color:#DF92FF"/>
		<stop  offset="0.8468" style="stop-color:#E678FF"/>
	</linearGradient>
	<path class="st4" d="M20.3,30.2L20.3,30.2c-0.3-4.1,1.2-6.2,3.7-7.7c0,0,0.1,0,0.1-0.1c0,0,0.1,0,0.1-0.1c0.1,0,0.2-0.1,0.2-0.1
		c0.3-0.1,0.5-0.3,0.8-0.4l0,0l4.5-2.8c0.3-0.2,0.5-0.5,0.5-0.9V14c0-0.3-0.1-0.5-0.2-0.7c-0.9,0.6-1.7,1-2.4,1.3
		c-2.1,1.3-3.6,2.3-4.9,2.9c-1.6,1.3-2.3,2.3-2.5,4.8c0,0,0,0,0,0c0,0,0,0,0,0c-0.1,1.4-0.1,3.2-0.1,5.7c0,0.1,0,0.1,0,0.2
		c0,0,0,0,0,0.1c0,0.1,0,0.2,0,0.2l0,0l0,0l0,0l0,0v0C20.3,29.1,20.3,29.6,20.3,30.2L20.3,30.2L20.3,30.2z"/>
	
		<linearGradient id="SVGID_5_" gradientUnits="userSpaceOnUse" x1="21.6612" y1="10.1251" x2="24.5504" y2="22.032" gradientTransform="matrix(1 0 0 -1 0 42)">
		<stop  offset="0.4295" style="stop-color:#A076FF"/>
		<stop  offset="0.4657" style="stop-color:#A374FF"/>
		<stop  offset="0.8245" style="stop-color:#BB5FFF"/>
	</linearGradient>
	<path class="st5" d="M20.3,30.2c0.2,0,0.3,0,0.4-0.1l3.9-2.3c0.4-0.2,0.7-0.7,0.7-1.2l0-4.8c-0.3,0.1-0.6,0.3-0.8,0.4
		c-0.1,0-0.2,0.1-0.2,0.1c0,0-0.1,0-0.1,0.1c0,0-0.1,0-0.1,0.1c-2.2,1.3-3.8,2.6-3.8,6l0,0l0,0v0C20.3,29,20.3,29.6,20.3,30.2
		C20.3,30.2,20.3,30.2,20.3,30.2z"/>
	
		<linearGradient id="SVGID_6_" gradientUnits="userSpaceOnUse" x1="25.4153" y1="33.5783" x2="25.2179" y2="26.3743" gradientTransform="matrix(1 0 0 -1 0 42)">
		<stop  offset="0.4044" style="stop-color:#FF4DF6"/>
		<stop  offset="0.6521" style="stop-color:#F832FF"/>
	</linearGradient>
	<path class="st6" d="M30.2,13.2c-0.9,0.6-1.7,1-2.4,1.3c-2.5,1-4.5,0.5-7.4-1.4l4.6-2.5c0.3-0.2,0.7-0.2,1,0l3.7,2.1
		C29.9,12.9,30.1,13,30.2,13.2z"/>
	
		<linearGradient id="SVGID_7_" gradientUnits="userSpaceOnUse" x1="10.3825" y1="24.546" x2="15.422" y2="24.546" gradientTransform="matrix(1 0 0 -1 0 42)">
		<stop  offset="0.1877" style="stop-color:#E475FF"/>
		<stop  offset="0.5853" style="stop-color:#D95FFF"/>
	</linearGradient>
	<path class="st7" d="M15.4,21.8L10.9,19c-0.3-0.2-0.5-0.5-0.5-0.9V14c0-0.3,0.1-0.6,0.3-0.8c1,0.6,1.8,1.2,2.6,1.7l0,0
		C15,16.6,15.6,18.6,15.4,21.8z"/>
</g>
<title>Asset 1</title>
</svg>
