<?xml version="1.0" encoding="utf-8"?>
<!-- Generator: Adobe Illustrator 22.0.0, SVG Export Plug-In . SVG Version: 6.00 Build 0)  -->
<svg version="1.1" id="Layer_1" xmlns="http://www.w3.org/2000/svg" xmlns:xlink="http://www.w3.org/1999/xlink" x="0px" y="0px"
	 viewBox="0 0 40 40" style="enable-background:new 0 0 40 40;" xml:space="preserve">
<style type="text/css">
	.st0{fill:url(#SVGID_1_);}
	.st1{fill:#FFFFFF;}
	.st2{fill:url(#SVGID_2_);}
	.st3{fill:url(#SVGID_3_);}
	.st4{fill:url(#SVGID_4_);}
	.st5{fill:url(#SVGID_5_);}
	.st6{fill:url(#SVGID_6_);}
	.st7{fill:url(#SVGID_7_);}
</style>
<linearGradient id="SVGID_1_" gradientUnits="userSpaceOnUse" x1="257.3169" y1="1819.1785" x2="294.6086" y2="1819.1785" gradientTransform="matrix(0 1 1 0 -1799.1785 -256.0419)">
	<stop  offset="1.198744e-03" style="stop-color:#B6A4E2"/>
	<stop  offset="1" style="stop-color:#FBA1F6"/>
</linearGradient>
<path class="st0" d="M37,26.2V13.6c0-2.1-1.1-4.1-3-5.2L23,2.1c-1.9-1.1-4.1-1.1-6,0L6,8.4c-1.9,1.1-3,3.1-3,5.2v12.6
	c0,2.1,1.1,4.1,3,5.2l11,6.3c1.9,1.1,4.1,1.1,6,0l11-6.3C35.8,30.3,37,28.4,37,26.2z"/>
<title>Asset 1</title>
<g>
	<path class="st1" d="M17.6,17.3c0.3,0.1,0.6,0.2,0.9,0.3c1.3,0.4,2.7,0.5,4.2-0.2c-0.3,0.2-0.6,0.5-0.8,0.7c-1,1-1.4,2.3-1.6,3.9
		C20,19.9,19.1,18.2,17.6,17.3z"/>
	
		<linearGradient id="SVGID_2_" gradientUnits="userSpaceOnUse" x1="12.0752" y1="32.8431" x2="23.8182" y2="24.6089" gradientTransform="matrix(1 0 0 -1 0 42)">
		<stop  offset="0.2433" style="stop-color:#FF51F4"/>
		<stop  offset="0.3942" style="stop-color:#FA77F9"/>
		<stop  offset="0.534" style="stop-color:#F692FC"/>
		<stop  offset="0.6575" style="stop-color:#F4A2FE"/>
		<stop  offset="0.7516" style="stop-color:#F3A8FF"/>
	</linearGradient>
	<path class="st2" d="M27.3,14.8c-2,1.2-3.4,2.2-4.6,2.7c-1.6,0.7-2.9,0.7-5.1-0.2l0,0c-1.1-0.5-2.4-1.2-4.1-2.3l0,0
		c-0.7-0.5-1.6-1-2.5-1.6c0.1-0.1,0.2-0.3,0.4-0.4l3.5-2c0.3-0.2,0.7-0.2,1,0l4.3,2.4l0,0C23.1,15.2,25,15.7,27.3,14.8z"/>
	
		<linearGradient id="SVGID_3_" gradientUnits="userSpaceOnUse" x1="19.5427" y1="11.0458" x2="15.8922" y2="26.3031" gradientTransform="matrix(1 0 0 -1 0 42)">
		<stop  offset="0.2381" style="stop-color:#A57DFF"/>
		<stop  offset="0.4008" style="stop-color:#C293FF"/>
		<stop  offset="0.616" style="stop-color:#E2ACFF"/>
		<stop  offset="0.7349" style="stop-color:#EEB5FF"/>
	</linearGradient>
	<path class="st3" d="M20.2,29.7c0-0.6,0-1.1,0-1.6l0,0l0,0l0,0l0,0c0-0.1,0-0.2,0-0.2c0,0,0,0,0-0.1c0-0.1,0-0.1,0-0.2
		c0-4,0-4.1,0.1-5.5c0,0,0,0,0,0c0,0,0,0,0,0c-0.1-2-1.1-3.9-2.7-4.7l0,0c-1.1-0.5-2.4-1.2-4.1-2.3c1.7,1.7,2.2,3.6,2,6.6v4.6
		c0,0.5,0.3,0.9,0.7,1.1l3.7,2.2C20,29.6,20.1,29.7,20.2,29.7L20.2,29.7z"/>
	
		<linearGradient id="SVGID_4_" gradientUnits="userSpaceOnUse" x1="19.9164" y1="17.2429" x2="31.1063" y2="25.7833" gradientTransform="matrix(1 0 0 -1 0 42)">
		<stop  offset="0" style="stop-color:#D7B2FF"/>
		<stop  offset="0.2103" style="stop-color:#D9AAFF"/>
		<stop  offset="0.5445" style="stop-color:#DF92FF"/>
		<stop  offset="0.8468" style="stop-color:#E678FF"/>
	</linearGradient>
	<path class="st4" d="M20.2,29.7L20.2,29.7c-0.3-3.9,1.1-5.8,3.5-7.3c0,0,0.1,0,0.1-0.1c0,0,0.1,0,0.1-0.1c0.1,0,0.2-0.1,0.2-0.1
		c0.3-0.1,0.5-0.3,0.8-0.4l0,0l4.3-2.7c0.3-0.2,0.5-0.5,0.5-0.8v-3.9c0-0.2-0.1-0.5-0.2-0.7c-0.8,0.5-1.6,1-2.3,1.2
		c-2,1.2-3.4,2.2-4.6,2.7c-1.5,1.2-2.1,2.2-2.4,4.5c0,0,0,0,0,0c0,0,0,0,0,0c-0.1,1.3-0.1,3-0.1,5.5c0,0.1,0,0.1,0,0.2
		c0,0,0,0,0,0.1c0,0.1,0,0.2,0,0.2l0,0l0,0l0,0l0,0v0C20.2,28.6,20.2,29.1,20.2,29.7L20.2,29.7L20.2,29.7z"/>
	
		<linearGradient id="SVGID_5_" gradientUnits="userSpaceOnUse" x1="21.4754" y1="10.7468" x2="24.2201" y2="22.0583" gradientTransform="matrix(1 0 0 -1 0 42)">
		<stop  offset="0.4295" style="stop-color:#A076FF"/>
		<stop  offset="0.4657" style="stop-color:#A374FF"/>
		<stop  offset="0.8245" style="stop-color:#BB5FFF"/>
	</linearGradient>
	<path class="st5" d="M20.2,29.7c0.2,0,0.3,0,0.4-0.1l3.7-2.2c0.4-0.2,0.7-0.7,0.7-1.1l0-4.6c-0.3,0.1-0.5,0.3-0.8,0.4
		c-0.1,0-0.2,0.1-0.2,0.1c0,0-0.1,0-0.1,0.1c0,0-0.1,0-0.1,0.1c-2.1,1.2-3.6,2.4-3.6,5.7l0,0l0,0v0C20.1,28.6,20.2,29.1,20.2,29.7
		C20.2,29.7,20.2,29.7,20.2,29.7z"/>
	
		<linearGradient id="SVGID_6_" gradientUnits="userSpaceOnUse" x1="25.0417" y1="33.0273" x2="24.8542" y2="26.1835" gradientTransform="matrix(1 0 0 -1 0 42)">
		<stop  offset="0.4044" style="stop-color:#FF4DF6"/>
		<stop  offset="0.6521" style="stop-color:#F832FF"/>
	</linearGradient>
	<path class="st6" d="M29.6,13.6c-0.8,0.5-1.6,1-2.3,1.2c-2.3,0.9-4.3,0.5-7-1.3l4.3-2.4c0.3-0.2,0.7-0.2,1,0l3.5,2
		C29.3,13.2,29.5,13.4,29.6,13.6z"/>
	
		<linearGradient id="SVGID_7_" gradientUnits="userSpaceOnUse" x1="10.7606" y1="24.4466" x2="15.5481" y2="24.4466" gradientTransform="matrix(1 0 0 -1 0 42)">
		<stop  offset="0.1877" style="stop-color:#E475FF"/>
		<stop  offset="0.5853" style="stop-color:#D95FFF"/>
	</linearGradient>
	<path class="st7" d="M15.5,21.7L11.2,19c-0.3-0.2-0.5-0.5-0.5-0.8v-3.9c0-0.3,0.1-0.6,0.3-0.8c0.9,0.6,1.7,1.1,2.5,1.6l0,0
		C15.2,16.7,15.7,18.7,15.5,21.7z"/>
</g>
</svg>
