<?xml version="1.0" encoding="utf-8"?>
<!-- Generator: Adobe Illustrator 22.0.0, SVG Export Plug-In . SVG Version: 6.00 Build 0)  -->
<svg version="1.1" id="Layer_1" xmlns="http://www.w3.org/2000/svg" xmlns:xlink="http://www.w3.org/1999/xlink" x="0px" y="0px"
	 viewBox="0 0 40 40" style="enable-background:new 0 0 40 40;" xml:space="preserve">
<style type="text/css">
	.st0{fill:url(#SVGID_1_);}
	.st1{fill:#FFFFFF;}
</style>
<linearGradient id="SVGID_1_" gradientUnits="userSpaceOnUse" x1="-12.3831" y1="-547.1784" x2="24.9086" y2="-547.1784" gradientTransform="matrix(0 1 -1 0 -527.1784 13.9581)">
	<stop  offset="0" style="stop-color:#4A4E68"/>
	<stop  offset="0.9949" style="stop-color:#343158"/>
</linearGradient>
<path class="st0" d="M37,26.5V13.9c0-2.1-1.1-4.1-3-5.2L23,2.4c-1.9-1.1-4.1-1.1-6,0L6,8.7c-1.9,1.1-3,3.1-3,5.2v12.6
	c0,2.1,1.1,4.1,3,5.2L17,38c1.9,1.1,4.1,1.1,6,0l11-6.3C35.8,30.6,37,28.7,37,26.5z"/>
<title>Asset 1</title>
<title>Asset 1</title>
<g>
	<path class="st1" d="M22.9,16.4c-0.2,0-0.4,0-0.5,0c-0.7,0.1-1.5,0.2-2.3,0.2s-1.6-0.1-2.3-0.2c-0.2,0-0.4,0-0.5,0
		c-3,0.4-5.2,1.3-5.2,2.5c0,1.4,3.5,2.6,7.9,2.6s7.9-1.1,7.9-2.6C28.1,17.7,26,16.7,22.9,16.4z"/>
	<path class="st1" d="M25.1,21.8c-0.4-0.1-0.7-0.1-1.1,0c-1.1,0.2-2.5,0.4-3.9,0.4s-2.7-0.1-3.9-0.4c-0.4-0.1-0.7-0.1-1.1,0
		c-3,0.5-5.1,1.7-5.1,2.9c0,1.8,4.5,3.3,10,3.3s10-1.5,10-3.3C30.2,23.4,28.1,22.3,25.1,21.8z"/>
	<ellipse class="st1" cx="20" cy="14" rx="6" ry="2"/>
</g>
</svg>
