<?xml version="1.0" encoding="utf-8"?>
<!-- Generator: Adobe Illustrator 22.0.0, SVG Export Plug-In . SVG Version: 6.00 Build 0)  -->
<svg version="1.1" id="Layer_1" xmlns="http://www.w3.org/2000/svg" xmlns:xlink="http://www.w3.org/1999/xlink" x="0px" y="0px"
	 viewBox="0 0 40 40" style="enable-background:new 0 0 40 40;" xml:space="preserve">
<style type="text/css">
	.st0{fill:url(#SVGID_1_);}
	.st1{fill:#FFFFFF;}
</style>
<linearGradient id="SVGID_1_" gradientUnits="userSpaceOnUse" x1="-12.6831" y1="-547.1784" x2="24.6086" y2="-547.1784" gradientTransform="matrix(0 1 -1 0 -527.1784 13.9581)">
	<stop  offset="1.198743e-03" style="stop-color:#0096FE"/>
	<stop  offset="1" style="stop-color:#1358F7"/>
</linearGradient>
<path class="st0" d="M37,26.2V13.6c0-2.1-1.1-4.1-3-5.2L23,2.1c-1.9-1.1-4.1-1.1-6,0L6,8.4c-1.9,1.1-3,3.1-3,5.2v12.6
	c0,2.1,1.1,4.1,3,5.2l11,6.3c1.9,1.1,4.1,1.1,6,0l11-6.3C35.8,30.3,37,28.4,37,26.2z"/>
<g>
	<path class="st1" d="M22.6,16.3l2.2,1.3v-6.4l-4.6-2.2l-7,4v14l7,4l7-4.1v-7l-6.7-4l-2.2,1.1l6.7,4l0.1,4.7l-4.8,2.7l-4.8-2.7V14
		l4.8-2.7l2.2,1.2L22.6,16.3L22.6,16.3z"/>
	<path class="st1" d="M20.2,20.2l1.5-0.8l1.7,1l-5,2.8v-5.8l1.8,1"/>
</g>
</svg>
