<?xml version="1.0" encoding="utf-8"?>
<!-- Generator: Adobe Illustrator 22.0.0, SVG Export Plug-In . SVG Version: 6.00 Build 0)  -->
<svg version="1.1" id="Layer_1" xmlns="http://www.w3.org/2000/svg" xmlns:xlink="http://www.w3.org/1999/xlink" x="0px" y="0px"
	 viewBox="0 0 40 40" style="enable-background:new 0 0 40 40;" xml:space="preserve">
<style type="text/css">
	.st0{fill:url(#SVGID_1_);}
	.st1{fill:#FFFFFF;}
	.st2{fill:none;stroke:#FFFFFF;stroke-width:2;stroke-miterlimit:10;}
</style>
<linearGradient id="SVGID_1_" gradientUnits="userSpaceOnUse" x1="-12.5831" y1="-547.2784" x2="24.7086" y2="-547.2784" gradientTransform="matrix(0 1 -1 0 -527.1784 13.9581)">
	<stop  offset="1.198744e-03" style="stop-color:#85D132"/>
	<stop  offset="1" style="stop-color:#70B348"/>
</linearGradient>
<path class="st0" d="M37.1,26.3V13.7c0-2.1-1.1-4.1-3-5.2l-11-6.3c-1.9-1.1-4.1-1.1-6,0l-11,6.3c-1.9,1.1-3,3.1-3,5.2v12.6
	c0,2.1,1.1,4.1,3,5.2l11,6.3c1.9,1.1,4.1,1.1,6,0l11-6.3C35.9,30.4,37.1,28.5,37.1,26.3z"/>
<title>Asset 1</title>
<title>Asset 1</title>
<g id="Vector_1_">
	<path id="path2_fill" class="st1" d="M22.8,17.2c-0.4-1-1.4-1.2-2.5-1l-0.4-1.5L19,15l0.4,1.4c-0.2,0.1-0.5,0.1-0.7,0.2l-0.4-1.5
		l-0.9,0.2l0.4,1.5c-0.2,0.1-0.4,0.1-0.6,0.2l0,0L16,17.3l0.2,1c0,0,0.7-0.2,0.6-0.2c0.4-0.1,0.5,0.1,0.6,0.3l0.4,1.7h0.1h-0.1
		l0.6,2.4c0,0.1,0,0.3-0.3,0.4l-0.7,0.2l0.1,1.1l1.2-0.3c0.2-0.1,0.4-0.1,0.6-0.2l0.4,1.5l0.9-0.2l-0.4-1.5c0.3-0.1,0.5-0.1,0.7-0.2
		l0.4,1.5l0.9-0.2L22,23.1c1.5-0.5,2.4-1.1,2.2-2.6C24,19.3,23.4,19,22.5,19C22.9,18.6,23.1,18,22.8,17.2L22.8,17.2L22.8,17.2z
		 M22.4,20.8c0.3,1.1-1.7,1.5-2.3,1.6l-0.5-2C20.3,20.3,22.1,19.6,22.4,20.8L22.4,20.8z M21.3,18.1c0.3,1-1.4,1.3-1.9,1.4L19,17.7
		C19.5,17.6,21,17,21.3,18.1L21.3,18.1z"/>
</g>
<circle class="st2" cx="20.1" cy="20" r="10"/>
</svg>
