<?xml version="1.0" encoding="utf-8"?>
<!-- Generator: Adobe Illustrator 22.0.0, SVG Export Plug-In . SVG Version: 6.00 Build 0)  -->
<svg version="1.1" id="Layer_1" xmlns="http://www.w3.org/2000/svg" xmlns:xlink="http://www.w3.org/1999/xlink" x="0px" y="0px"
	 viewBox="0 0 40 40" style="enable-background:new 0 0 40 40;" xml:space="preserve">
<style type="text/css">
	.st0{fill:url(#SVGID_1_);}
	.st1{fill:#FFFFFF;}
</style>
<linearGradient id="SVGID_1_" gradientUnits="userSpaceOnUse" x1="-12.5831" y1="-547.1784" x2="24.7086" y2="-547.1784" gradientTransform="matrix(0 1 -1 0 -527.1784 13.9581)">
	<stop  offset="1.198744e-03" style="stop-color:#277CEE"/>
	<stop  offset="1" style="stop-color:#0E50BC"/>
</linearGradient>
<path class="st0" d="M37,26.3V13.7c0-2.1-1.1-4.1-3-5.2L23,2.2c-1.9-1.1-4.1-1.1-6,0L6,8.5c-1.9,1.1-3,3.1-3,5.2v12.6
	c0,2.1,1.1,4.1,3,5.2l11,6.3c1.9,1.1,4.1,1.1,6,0l11-6.3C35.8,30.4,37,28.5,37,26.3z"/>
<title>Asset 1</title>
<title>Asset 1</title>
<path class="st1" d="M19.9,9.1l-5,3l5,3l5.2-3L19.9,9.1z M20.8,24.9v5.9l6.8-3.9V21L20.8,24.9z M25.9,14v5.9l-5.2,3V17L25.9,14z
	 M13.6,19.9l5.2,3V17l-5.2-3V19.9z M13.6,27.9l5.2,3V25l-5.2-3V27.9L13.6,27.9L13.6,27.9z"/>
</svg>
