<?xml version="1.0" encoding="utf-8"?>
<!-- Generator: Adobe Illustrator 22.0.0, SVG Export Plug-In . SVG Version: 6.00 Build 0)  -->
<svg version="1.1" id="Layer_1" xmlns="http://www.w3.org/2000/svg" xmlns:xlink="http://www.w3.org/1999/xlink" x="0px" y="0px"
	 viewBox="0 0 40 40" style="enable-background:new 0 0 40 40;" xml:space="preserve">
<style type="text/css">
	.st0{fill:url(#SVGID_1_);}
	.st1{fill:#FFFFFF;}
</style>
<linearGradient id="SVGID_1_" gradientUnits="userSpaceOnUse" x1="-12.5831" y1="-547.1784" x2="24.7086" y2="-547.1784" gradientTransform="matrix(0 1 -1 0 -527.1784 13.9581)">
	<stop  offset="0" style="stop-color:#50CAA7"/>
	<stop  offset="1" style="stop-color:#32975E"/>
</linearGradient>
<path class="st0" d="M37,26.3V13.7c0-2.1-1.1-4.1-3-5.2L23,2.2c-1.9-1.1-4.1-1.1-6,0L6,8.5c-1.9,1.1-3,3.1-3,5.2v12.6
	c0,2.1,1.1,4.1,3,5.2l11,6.3c1.9,1.1,4.1,1.1,6,0l11-6.3C35.8,30.4,37,28.5,37,26.3z"/>
<g>
	<path class="st1" d="M29.1,18.5v-0.1l0,0l-0.9-0.9l-0.9-0.9c0-0.1-0.1-0.1-0.2-0.1h-8.7l0,0l0,0l0,0l0,0l0,0l-0.9,0.9l-0.9,0.9
		c-0.1,0.1-0.1,0.1-0.1,0.2V19c0,0.1,0,0.1,0.1,0.2s0.2,0.1,0.3,0.1h1.5h0.1c0,0,0,0,0.1,0l0,0l0.8-0.9h7.3l0.7,0.7v7L27,26.5
		l-0.3,0.3H19L18.1,26c0,0-0.1-0.1-0.2-0.1h-1.5c-0.2,0-0.3,0.1-0.3,0.3v0.4v0.1l0,0l0,0c0,0,0,0.1,0.1,0.1l1.9,1.9
		c0,0,0.1,0,0.1,0.1h0.1H27c0.1,0,0.1,0,0.1,0h0.1l1.9-1.9c0.1-0.1,0.1-0.1,0.1-0.2C29.1,26.7,29.1,18.6,29.1,18.5L29.1,18.5z"/>
	<path class="st1" d="M21.8,23.6L21.8,23.6C21.9,23.6,21.9,23.6,21.8,23.6C21.9,23.6,21.9,23.5,21.8,23.6c0.1,0,0.1-0.1,0.1-0.1
		l0.9-0.9l0.9-0.9c0.1-0.1,0.1-0.1,0.1-0.2V21c0-0.1,0-0.1-0.1-0.2s-0.2-0.1-0.3-0.1h-1.5h-0.1c0,0,0,0-0.1,0l0,0L21,21.6h-7.3
		L13,20.9v-7l0.4-0.4l0.3-0.3H21l0.8,0.8c0.1,0.1,0.1,0.1,0.2,0.1h1.5c0.2,0,0.3-0.1,0.3-0.3v-0.4v-0.1l0,0l0,0c0,0,0-0.1-0.1-0.1
		l-1.9-1.9c0,0,0,0-0.1-0.1h-0.1H13c-0.1,0-0.1,0-0.1,0s0,0-0.1,0L11,13.1c-0.1,0-0.1,0.1-0.1,0.2v8.1c0,0.1,0,0.1,0.1,0.2l0.9,0.9
		l0.9,0.9c0.1,0.1,0.1,0.1,0.2,0.1l0,0L21.8,23.6L21.8,23.6z"/>
</g>
</svg>
