<?xml version="1.0" encoding="utf-8"?>
<!-- Generator: Adobe Illustrator 22.0.0, SVG Export Plug-In . SVG Version: 6.00 Build 0)  -->
<svg version="1.1" id="Layer_1" xmlns="http://www.w3.org/2000/svg" xmlns:xlink="http://www.w3.org/1999/xlink" x="0px" y="0px"
	 viewBox="0 0 40 40" style="enable-background:new 0 0 40 40;" xml:space="preserve">
<style type="text/css">
	.st0{fill:url(#SVGID_1_);}
	.st1{fill:#FFFFFF;}
</style>
<linearGradient id="SVGID_1_" gradientUnits="userSpaceOnUse" x1="204.5669" y1="-1117.1785" x2="167.2752" y2="-1117.1785" gradientTransform="matrix(0 1 -1 0 -1097.1785 -166.0419)">
	<stop  offset="0" style="stop-color:#11325D"/>
	<stop  offset="1" style="stop-color:#1E628A"/>
</linearGradient>
<path class="st0" d="M37,26.2V13.6c0-2.1-1.1-4.1-3-5.2L23,2.1c-1.9-1.1-4.1-1.1-6,0L6,8.4c-1.9,1.1-3,3.1-3,5.2v12.6
	c0,2.1,1.1,4.1,3,5.2l11,6.3c1.9,1.1,4.1,1.1,6,0l11-6.3C35.8,30.3,37,28.4,37,26.2z"/>
<title>Asset 1</title>
<path class="st1" d="M20.1,8.7l9.5,5.5v11l-9.5,5.5l-0.1,0l-9.4-5.5v-11L20.1,8.7C20,8.7,20.1,8.7,20.1,8.7z M20,9.8l-8.4,4.9v9.9
	l8.4,4.9l1-0.6l7.5-4.3v-9.8l-7.5-4.4L20,9.8z M12.9,20.5l2.5-1.9l2.2,1.4v2.5l1.7,1.6l0,0.8l-1.6,1.5h-1.4L12.9,20.5L12.9,20.5z
	 M20.8,24.9l0-0.8l1.7-1.6V20l2.2-1.4l2.5,1.9l-3.4,5.9h-1.3L20.8,24.9z M18.4,20l-0.8-2.1h4.8L21.7,20l0.2,2.4l-1.9,0l-1.8,0
	C18.2,22.4,18.4,20,18.4,20z M20,17.3l-4.6,0l0.9-3.8h7.5l0.9,3.8L20,17.3z"/>
</svg>
