<?xml version="1.0" encoding="utf-8"?>
<!-- Generator: Adobe Illustrator 22.0.0, SVG Export Plug-In . SVG Version: 6.00 Build 0)  -->
<svg version="1.1" id="Layer_1" xmlns="http://www.w3.org/2000/svg" xmlns:xlink="http://www.w3.org/1999/xlink" x="0px" y="0px"
	 viewBox="0 0 40 40" style="enable-background:new 0 0 40 40;" xml:space="preserve">
<style type="text/css">
	.st0{fill:url(#SVGID_1_);}
	.st1{fill:#FFFFFF;}
</style>
<linearGradient id="SVGID_1_" gradientUnits="userSpaceOnUse" x1="-12.5831" y1="-547.1784" x2="24.7086" y2="-547.1784" gradientTransform="matrix(0 1 -1 0 -527.1784 13.9581)">
	<stop  offset="1.198743e-03" style="stop-color:#2D5DC9"/>
	<stop  offset="1" style="stop-color:#1F4BBF"/>
</linearGradient>
<path class="st0" d="M37,26.3V13.7c0-2.1-1.1-4.1-3-5.2L23,2.2c-1.9-1.1-4.1-1.1-6,0L6,8.5c-1.9,1.1-3,3.1-3,5.2v12.6
	c0,2.1,1.1,4.1,3,5.2l11,6.3c1.9,1.1,4.1,1.1,6,0l11-6.3C35.8,30.4,37,28.5,37,26.3z"/>
<g>
	<path class="st1" d="M26,14.1c-0.1-0.1-0.1-0.2-0.1-0.3c0-0.1,0-0.2,0.1-0.3c0.2-0.1,0.4-0.1,0.6,0c0.1,0.1,0.1,0.2,0.1,0.3
		c0,0.1,0,0.2-0.1,0.3s-0.2,0.1-0.3,0.1C26.2,14.2,26.1,14.2,26,14.1z"/>
	<path class="st1" d="M25,15.1c-0.1-0.1-0.1-0.2-0.1-0.3c0-0.1,0-0.2,0.1-0.3s0.4-0.1,0.6,0c0.1,0.1,0.1,0.2,0.1,0.3
		c0,0.1,0,0.2-0.1,0.3c-0.1,0.1-0.2,0.1-0.3,0.1C25.2,15.2,25.1,15.2,25,15.1z"/>
	<path class="st1" d="M24,16.1c-0.1-0.1-0.1-0.2-0.1-0.3c0-0.1,0-0.2,0.1-0.3c0.1-0.1,0.4-0.1,0.6,0c0.1,0.1,0.1,0.2,0.1,0.3
		c0,0.1,0,0.2-0.1,0.3s-0.2,0.1-0.3,0.1C24.1,16.2,24,16.2,24,16.1z"/>
	<path class="st1" d="M23,17.1c-0.1-0.1-0.1-0.2-0.1-0.3s0-0.2,0.1-0.3c0.2-0.1,0.4-0.1,0.6,0c0.1,0.1,0.1,0.2,0.1,0.3
		s0,0.2-0.1,0.3s-0.2,0.1-0.3,0.1C23.2,17.2,23.1,17.2,23,17.1z"/>
	<path class="st1" d="M22,18.2c-0.1-0.1-0.1-0.2-0.1-0.3c0-0.1,0-0.2,0.1-0.3c0.1-0.1,0.4-0.1,0.6,0c0.1,0.1,0.1,0.2,0.1,0.3
		c0,0.1,0,0.2-0.1,0.3c-0.1,0.1-0.2,0.1-0.3,0.1C22.2,18.3,22.1,18.2,22,18.2z"/>
	<path class="st1" d="M20.8,19c0-0.1,0-0.2,0.1-0.3c0.1-0.1,0.4-0.1,0.6,0c0.1,0.1,0.1,0.2,0.1,0.3s0,0.2-0.1,0.3
		c-0.1,0.1-0.2,0.1-0.3,0.1c-0.1,0-0.2,0-0.3-0.1S20.8,19.1,20.8,19z"/>
	<path class="st1" d="M18.9,21.2c-0.1-0.1-0.1-0.2-0.1-0.3c0-0.1,0-0.2,0.1-0.3c0.1-0.1,0.4-0.1,0.6,0c0.1,0.1,0.1,0.2,0.1,0.3
		c0,0.1,0,0.2-0.1,0.3s-0.2,0.1-0.3,0.1C19,21.4,18.9,21.3,18.9,21.2z"/>
	<path class="st1" d="M17.8,22.3c-0.1-0.1-0.1-0.2-0.1-0.3c0-0.1,0-0.2,0.1-0.3c0.2-0.1,0.4-0.1,0.6,0c0.1,0.1,0.1,0.2,0.1,0.3
		c0,0.1,0,0.2-0.1,0.3s-0.2,0.1-0.3,0.1C18,22.4,17.9,22.3,17.8,22.3z"/>
	<path class="st1" d="M16.8,23.3c-0.1-0.1-0.1-0.2-0.1-0.3c0-0.1,0-0.2,0.1-0.3c0.1-0.1,0.4-0.1,0.6,0c0.1,0.1,0.1,0.2,0.1,0.3
		c0,0.1,0,0.2-0.1,0.3s-0.2,0.1-0.3,0.1C17,23.4,16.9,23.4,16.8,23.3z"/>
	<path class="st1" d="M15.8,24.3c-0.1-0.1-0.1-0.2-0.1-0.3s0-0.2,0.1-0.3c0.1-0.1,0.4-0.1,0.6,0c0.1,0.1,0.1,0.2,0.1,0.3
		c0,0.1,0,0.2-0.1,0.3s-0.2,0.1-0.3,0.1C16,24.4,15.9,24.4,15.8,24.3z"/>
	<path class="st1" d="M14.7,25.3c-0.1-0.1-0.1-0.2-0.1-0.3c0-0.1,0-0.2,0.1-0.3c0.2-0.1,0.4-0.1,0.6,0c0.1,0.1,0.1,0.2,0.1,0.3
		c0,0.1,0,0.2-0.1,0.3c-0.1,0.1-0.2,0.1-0.3,0.1C14.9,25.4,14.8,25.4,14.7,25.3z"/>
	<path class="st1" d="M13.7,26.3c-0.1-0.1-0.1-0.2-0.1-0.3c0-0.1,0-0.2,0.1-0.3c0.1-0.1,0.4-0.1,0.6,0c0.1,0.1,0.1,0.2,0.1,0.3
		c0,0.1,0,0.2-0.1,0.3c-0.1,0.1-0.2,0.1-0.3,0.1C13.9,26.5,13.8,26.4,13.7,26.3z"/>
	<path class="st1" d="M14.3,14.1c0.1-0.1,0.1-0.2,0.1-0.3c0-0.1,0-0.2-0.1-0.3c-0.1-0.1-0.4-0.1-0.6,0c-0.1,0.1-0.1,0.2-0.1,0.3
		c0,0.1,0,0.2,0.1,0.3c0.1,0.1,0.2,0.1,0.3,0.1C14.1,14.2,14.2,14.2,14.3,14.1z"/>
	<path class="st1" d="M15.3,15.1c0.1-0.1,0.1-0.2,0.1-0.3c0-0.1,0-0.2-0.1-0.3c-0.2-0.1-0.4-0.1-0.6,0c-0.1,0.1-0.1,0.2-0.1,0.3
		c0,0.1,0,0.2,0.1,0.3c0.1,0.1,0.2,0.1,0.3,0.1C15.1,15.2,15.2,15.2,15.3,15.1z"/>
	<path class="st1" d="M16.4,16.1c0.1-0.1,0.1-0.2,0.1-0.3c0-0.1,0-0.2-0.1-0.3c-0.1-0.1-0.4-0.1-0.6,0c-0.1,0.1-0.1,0.2-0.1,0.3
		c0,0.1,0,0.2,0.1,0.3c0.1,0.1,0.2,0.1,0.3,0.1C16.2,16.2,16.3,16.2,16.4,16.1z"/>
	<path class="st1" d="M17.4,17.1c0.1-0.1,0.1-0.2,0.1-0.3s0-0.2-0.1-0.3c-0.1-0.1-0.4-0.1-0.6,0c-0.1,0.1-0.1,0.2-0.1,0.3
		s0,0.2,0.1,0.3c0.1,0.1,0.2,0.1,0.3,0.1C17.2,17.2,17.3,17.2,17.4,17.1z"/>
	<path class="st1" d="M18.4,18.2c0.1,0,0.1-0.1,0.1-0.2s0-0.2-0.1-0.3s-0.4-0.1-0.6,0c-0.1,0.1-0.1,0.2-0.1,0.3c0,0.1,0,0.2,0.1,0.3
		c0.1,0.1,0.2,0.1,0.3,0.1C18.2,18.3,18.3,18.2,18.4,18.2z"/>
	<path class="st1" d="M19.5,19c0-0.1,0-0.2-0.1-0.3c-0.1-0.1-0.4-0.1-0.6,0c-0.1,0.1-0.1,0.2-0.1,0.3s0,0.2,0.1,0.3
		c0.1,0.1,0.2,0.1,0.3,0.1c0.1,0,0.2,0,0.3-0.1C19.5,19.2,19.5,19.1,19.5,19z"/>
	<path class="st1" d="M20.4,20.3c0.1-0.1,0.1-0.2,0.1-0.3c0-0.1,0-0.2-0.1-0.3c-0.1-0.1-0.4-0.1-0.6,0c-0.1,0.1-0.1,0.2-0.1,0.3
		s0,0.2,0.1,0.3c0.1,0.1,0.2,0.1,0.3,0.1S20.4,20.4,20.4,20.3z"/>
	<path class="st1" d="M21.4,21.2c0.1-0.1,0.1-0.2,0.1-0.3c0-0.1,0-0.2-0.1-0.3c-0.2-0.1-0.4-0.1-0.6,0c-0.1,0.1-0.1,0.2-0.1,0.3
		c0,0.1,0,0.2,0.1,0.3c0.1,0.1,0.2,0.1,0.3,0.1C21.2,21.4,21.4,21.3,21.4,21.2z"/>
	<path class="st1" d="M22.5,22.3c0.1-0.1,0.1-0.2,0.1-0.3c0-0.1,0-0.2-0.1-0.3c-0.1-0.1-0.4-0.1-0.6,0c-0.1,0.1-0.1,0.2-0.1,0.3
		c0,0.1,0,0.2,0.1,0.3c0.1,0.1,0.2,0.1,0.3,0.1C22.3,22.4,22.4,22.3,22.5,22.3z"/>
	<path class="st1" d="M23.5,23.3c0.1-0.1,0.1-0.2,0.1-0.3c0-0.1,0-0.2-0.1-0.3c-0.1-0.1-0.4-0.1-0.6,0c-0.1,0.1-0.1,0.2-0.1,0.3
		c0,0.1,0,0.2,0.1,0.3c0.1,0.1,0.2,0.1,0.3,0.1C23.4,23.4,23.4,23.4,23.5,23.3z"/>
	<path class="st1" d="M24.5,24.3c0.1-0.1,0.1-0.2,0.1-0.3c0-0.1,0-0.2-0.1-0.3c-0.1-0.1-0.4-0.1-0.6,0c-0.1,0.1-0.1,0.2-0.1,0.3
		c0,0.1,0,0.2,0.1,0.3c0.1,0.1,0.2,0.1,0.3,0.1C24.3,24.4,24.5,24.4,24.5,24.3z"/>
	<path class="st1" d="M25.6,25.3c0.1-0.1,0.1-0.2,0.1-0.3c0-0.1,0-0.2-0.1-0.3s-0.4-0.1-0.6,0c-0.1,0.1-0.1,0.2-0.1,0.3
		c0,0.1,0,0.2,0.1,0.3c0.1,0.1,0.2,0.1,0.3,0.1C25.4,25.4,25.5,25.4,25.6,25.3z"/>
	<path class="st1" d="M26.6,26.3c0.1-0.1,0.1-0.2,0.1-0.3c0-0.1,0-0.2-0.1-0.3c-0.2-0.1-0.4-0.1-0.6,0c-0.1,0.1-0.1,0.2-0.1,0.3
		c0,0.1,0,0.2,0.1,0.3c0.1,0.1,0.2,0.1,0.3,0.1C26.4,26.5,26.5,26.4,26.6,26.3z"/>
	<path class="st1" d="M16.7,14.4c1-0.6,2.2-1,3.5-1c1.2,0,2.4,0.4,3.5,1l2.2-2.2c-1.7-1.3-3.6-1.9-5.7-1.9s-4,0.6-5.6,1.9L16.7,14.4
		z"/>
	<path class="st1" d="M14.5,23.4c-0.7-1.1-1-2.2-1-3.4s0.4-2.4,1-3.4l-2.2-2.2C11,16,10.4,18,10.4,20s0.6,4,1.9,5.6L14.5,23.4z"/>
	<path class="st1" d="M23.6,25.6c-1,0.7-2.2,1.1-3.4,1.1c-1.3,0-2.4-0.4-3.5-1.1l-2.2,2.2c1.7,1.3,3.6,2,5.7,1.9c2,0,4-0.6,5.6-1.9
		L23.6,25.6z"/>
	<path class="st1" d="M25.7,16.5c0.7,1.1,1.1,2.2,1,3.5c0,1.2-0.4,2.3-1,3.4l2.2,2.2c1.3-1.7,1.9-3.6,1.9-5.6c0-2.1-0.6-4-1.9-5.7
		L25.7,16.5z"/>
	<path class="st1" d="M28,26.3c0.8,0,1.6,0.6,1.6,1.6c0,0.8-0.6,1.6-1.6,1.6c-0.8,0-1.6-0.6-1.6-1.6C26.5,27,27.2,26.3,28,26.3z"/>
	<path class="st1" d="M12.3,26.3c0.8,0,1.6,0.6,1.6,1.6c0,0.8-0.6,1.6-1.6,1.6c-0.8,0-1.6-0.6-1.6-1.6C10.8,27,11.5,26.3,12.3,26.3z
		"/>
	<path class="st1" d="M28,10.5c0.8,0,1.6,0.6,1.6,1.6c0,0.8-0.6,1.6-1.6,1.6c-0.8,0-1.6-0.6-1.6-1.6C26.5,11.2,27.2,10.5,28,10.5z"
		/>
	<path class="st1" d="M12.2,10.5c0.8,0,1.6,0.6,1.6,1.6c0,0.9-0.6,1.6-1.6,1.6c-0.8,0-1.6-0.6-1.6-1.6
		C10.7,11.2,11.4,10.5,12.2,10.5z"/>
</g>
</svg>
