<?xml version="1.0" encoding="utf-8"?>
<!-- Generator: Adobe Illustrator 22.0.0, SVG Export Plug-In . SVG Version: 6.00 Build 0)  -->
<svg version="1.1" id="Layer_1" xmlns="http://www.w3.org/2000/svg" xmlns:xlink="http://www.w3.org/1999/xlink" x="0px" y="0px"
	 viewBox="0 0 40 40" style="enable-background:new 0 0 40 40;" xml:space="preserve">
<style type="text/css">
	.st0{fill:url(#SVGID_1_);}
	.st1{fill:#FFFFFF;}
</style>
<linearGradient id="SVGID_1_" gradientUnits="userSpaceOnUse" x1="77.4169" y1="1249.1785" x2="114.7086" y2="1249.1785" gradientTransform="matrix(0 1 1 0 -1229.1785 -76.0419)">
	<stop  offset="0" style="stop-color:#4D638D"/>
	<stop  offset="1" style="stop-color:#262F54"/>
</linearGradient>
<path class="st0" d="M37,26.3V13.7c0-2.1-1.1-4.1-3-5.2L23,2.2c-1.9-1.1-4.1-1.1-6,0L6,8.5c-1.9,1.1-3,3.1-3,5.2v12.6
	c0,2.1,1.1,4.1,3,5.2l11,6.3c1.9,1.1,4.1,1.1,6,0l11-6.3C35.8,30.4,37,28.5,37,26.3z"/>
<g id="Layer_2_1_">
	<g id="Layer_1-2">
		<path class="st1" d="M20.3,9.2l-4.9,6.7l-2,9.9l6.9,4.2l6.9-4.2l-2.1-10L20.3,9.2z M14.5,25.4l1.5-7.5l3.5,10.6L14.5,25.4z
			 M16.6,16.1l3.7-5.2l3.7,5.2l-3.7,11.4L16.6,16.1z M21,28.5l3.5-10.6l1.5,7.5L21,28.5z"/>
	</g>
</g>
</svg>
