<?xml version="1.0" encoding="utf-8"?>
<!-- Generator: Adobe Illustrator 22.0.0, SVG Export Plug-In . SVG Version: 6.00 Build 0)  -->
<svg version="1.1" id="Layer_1" xmlns="http://www.w3.org/2000/svg" xmlns:xlink="http://www.w3.org/1999/xlink" x="0px" y="0px"
	 viewBox="0 0 40 40" style="enable-background:new 0 0 40 40;" xml:space="preserve">
<style type="text/css">
	.st0{fill:url(#SVGID_1_);}
	.st1{fill:#FFFFFF;}
</style>
<linearGradient id="SVGID_1_" gradientUnits="userSpaceOnUse" x1="-12.5831" y1="-547.1784" x2="24.7086" y2="-547.1784" gradientTransform="matrix(0 1 -1 0 -527.1784 13.9581)">
	<stop  offset="0" style="stop-color:#8BEAF3"/>
	<stop  offset="1" style="stop-color:#00A7C1"/>
</linearGradient>
<path class="st0" d="M37,26.3V13.7c0-2.1-1.1-4.1-3-5.2L23,2.2c-1.9-1.1-4.1-1.1-6,0L6,8.5c-1.9,1.1-3,3.1-3,5.2v12.6
	c0,2.1,1.1,4.1,3,5.2l11,6.3c1.9,1.1,4.1,1.1,6,0l11-6.3C35.8,30.4,37,28.5,37,26.3z"/>
<title>ftx--logo</title>
<g id="Layer_2_1_">
	<g id="Layer_1-2_1_">
		<path class="st1" d="M15.6,11.9c4.8,0,9.6,0,14.4,0c0,1.6,0,3.1,0,4.7c-4.8,0-9.6,0-14.4,0C15.6,15.1,15.6,13.5,15.6,11.9z"/>
		<path class="st1" d="M10.1,18.3c1.6,0,3.1,0,4.7,0c0,1.6,0,3.1,0,4.7c-1.6,0-3.1,0-4.7,0C10,21.4,10,19.8,10.1,18.3z"/>
		<path class="st1" d="M15.6,18.3c3.5,0,6.9,0,10.3,0c0,1.6,0,3.1,0,4.7c-3.5,0-6.9,0-10.3,0C15.6,21.4,15.6,19.8,15.6,18.3z"/>
		<path class="st1" d="M15.6,24.7c1.6,0,3.1,0,4.7,0c0,1.6,0,3.1,0,4.7c-1.6,0-3.1,0-4.7,0C15.6,27.8,15.6,26.2,15.6,24.7z"/>
	</g>
</g>
</svg>
