<?xml version="1.0" encoding="utf-8"?>
<!-- Generator: Adobe Illustrator 22.0.0, SVG Export Plug-In . SVG Version: 6.00 Build 0)  -->
<svg version="1.1" id="Layer_1" xmlns="http://www.w3.org/2000/svg" xmlns:xlink="http://www.w3.org/1999/xlink" x="0px" y="0px"
	 viewBox="0 0 40 40" style="enable-background:new 0 0 40 40;" xml:space="preserve">
<style type="text/css">
	.st0{fill:url(#SVGID_1_);}
	.st1{fill:#FFFFFF;}
</style>
<linearGradient id="SVGID_1_" gradientUnits="userSpaceOnUse" x1="-12.4831" y1="-547.1784" x2="24.8086" y2="-547.1784" gradientTransform="matrix(0 1 -1 0 -527.1784 13.9581)">
	<stop  offset="0" style="stop-color:#009DDB"/>
	<stop  offset="0.9988" style="stop-color:#1F2A6E"/>
</linearGradient>
<path class="st0" d="M37,26.4V13.8c0-2.1-1.1-4.1-3-5.2L23,2.3c-1.9-1.1-4.1-1.1-6,0L6,8.6c-1.9,1.1-3,3.1-3,5.2v12.6
	c0,2.1,1.1,4.1,3,5.2l11,6.3c1.9,1.1,4.1,1.1,6,0l11-6.3C35.8,30.5,37,28.6,37,26.4z"/>
<path class="st1" d="M22.1,15.2c0-3-1.5-5.6-2.6-6.4c0,0-0.1,0-0.1,0.1c-0.1,5.8-3,7.4-4.7,9.5C11,23.3,14.4,28.7,18,29.7
	c2,0.6-0.5-1-0.8-4.2C17,21.5,22.1,18.5,22.1,15.2"/>
<path class="st1" d="M24.1,17.2C24.1,17.2,24,17.2,24.1,17.2C24,17.2,24,17.2,24.1,17.2c-0.2,0.7-1,2.3-2,3.7
	c-3.4,4.9-1.5,7.2-0.4,8.5c0.6,0.7,0,0,1.6-0.8c0.1-0.1,3.1-1.6,3.4-5.2C27.1,20,24.9,17.8,24.1,17.2"/>
</svg>
