<?xml version="1.0" encoding="utf-8"?>
<!-- Generator: Adobe Illustrator 22.0.0, SVG Export Plug-In . SVG Version: 6.00 Build 0)  -->
<svg version="1.1" id="Layer_1" xmlns="http://www.w3.org/2000/svg" xmlns:xlink="http://www.w3.org/1999/xlink" x="0px" y="0px"
	 viewBox="0 0 40 40" style="enable-background:new 0 0 40 40;" xml:space="preserve">
<style type="text/css">
	.st0{fill:url(#SVGID_1_);}
	.st1{fill:#FFFFFF;}
</style>
<linearGradient id="SVGID_1_" gradientUnits="userSpaceOnUse" x1="204.5669" y1="-1117.1785" x2="167.2752" y2="-1117.1785" gradientTransform="matrix(0 1 -1 0 -1097.1785 -166.0419)">
	<stop  offset="0" style="stop-color:#EB5C2C"/>
	<stop  offset="1" style="stop-color:#F6E93D"/>
</linearGradient>
<path class="st0" d="M37,26.2V13.6c0-2.1-1.1-4.1-3-5.2L23,2.1c-1.9-1.1-4.1-1.1-6,0L6,8.4c-1.9,1.1-3,3.1-3,5.2v12.6
	c0,2.1,1.1,4.1,3,5.2l11,6.3c1.9,1.1,4.1,1.1,6,0l11-6.3C35.8,30.3,37,28.4,37,26.2z"/>
<title>Asset 1</title>
<polygon class="st1" points="14.7,18 14.7,18 14.9,18.1 15.1,18.1 15.3,18.2 15.4,18.3 15.6,18.3 15.8,18.4 15.9,18.4 16.1,18.5 
	16.3,18.6 16.4,18.6 16.6,18.7 16.8,18.8 17,18.8 17.1,18.9 17.3,18.9 17.5,19 17.6,19.1 17.8,19.1 18,19.2 18.1,19.3 18.3,19.3 
	18.3,19 18.3,19 18.3,18.8 18.3,18.8 18.3,18.6 18.3,18.5 18.3,18.3 18.3,18 18.3,17.7 18.3,17.5 18.3,17.2 18.3,16.9 18.3,16.9 
	18.3,16.9 18.3,16.9 18.1,16.9 17.9,16.9 17.9,16.9 17.9,16.9 17.7,16.9 17.5,16.9 17.5,16.9 17.4,16.9 17.2,16.9 17.1,16.9 
	17.1,16.9 17,16.9 16.8,16.9 16.7,16.9 16.7,16.9 16.6,16.9 16.3,16.9 16.3,16.9 16.3,16.9 16.1,16.9 15.9,16.9 15.9,16.9 
	15.9,16.9 15.7,16.9 15.5,16.9 15.5,16.9 15.1,16.9 15.1,16.9 14.7,16.9 14.7,16.9 14.5,16.9 14.3,17 13.9,17.2 13.5,17.4 
	13.1,17.6 12.7,17.8 12.3,18 11.9,18.2 11.5,18.4 11.1,18.6 10.7,18.8 10.4,19.1 10,19.2 9.9,25.2 10.4,25.5 10.7,25.7 11.1,26 
	11.5,26.3 11.9,26.6 12.3,26.9 12.5,27 12.7,26.7 13.1,26.2 13.2,26.1 13.1,26.1 12.7,25.8 12.3,25.5 11.9,25.3 11.5,25 11.1,24.7 
	11,24.6 11.1,19.8 11.1,19.8 11.5,19.6 11.9,19.4 12.3,19.2 12.7,19 13.1,18.8 13.5,18.6 13.9,18.4 14.3,18.2 "/>
<polygon class="st1" points="21.6,29.3 21.3,29.5 20.9,29.6 20.5,29.8 20.1,29.9 20,30 19.8,29.9 19.4,29.7 19,29.5 18.7,29.3 
	18.3,29.1 17.9,29 17.5,28.8 17.2,28.6 16.8,28.4 16.4,28.2 16.1,28 15.7,27.8 15.3,27.6 15.3,27.6 15.3,22.8 15,22.8 14.6,22.8 
	14.2,22.8 14.2,28.3 14.6,28.5 15,28.6 15.3,28.8 15.7,29 16.1,29.2 16.4,29.4 16.8,29.6 17.2,29.8 17.5,30 17.9,30.1 18.3,30.3 
	18.7,30.5 19,30.7 19.4,30.9 19.8,31.1 19.9,31.2 20.1,31.1 20.5,30.9 20.9,30.8 21.3,30.6 21.6,30.5 22,30.3 21.6,29.4 "/>
<polygon class="st1" points="28.2,22.6 28.2,24.9 28.1,25 27.5,25.4 26.9,25.8 26.2,26.3 25.6,26.7 25,27.2 24.3,27.6 23.7,28.1 
	23.3,28.4 23.1,28.2 22.5,27.7 21.8,27.2 21.2,26.7 20.6,26.2 20.5,26.2 20.5,23.7 20.6,23.6 21.2,22.9 21.8,22.3 22.5,21.6 
	23.1,21 23.7,20.3 23.1,20.3 22.5,20.3 21.8,20.3 21.2,20.3 20.6,20.3 19.9,20.3 19.3,20.3 18.7,20.3 18.1,20.3 17.4,20.3 
	16.8,20.3 16.2,20.3 16.8,21 17.4,21.6 18.1,22.3 18.7,23 19.3,23.6 19.4,23.7 19.4,26.7 19.9,27.1 20.6,27.6 21.2,28.1 21.8,28.5 
	22.5,29 23.1,29.5 23.3,29.7 23.7,29.4 24.3,29 25,28.5 25.6,28.1 26.2,27.6 26.9,27.2 27.5,26.7 28.1,26.3 28.8,25.8 29.3,25.4 
	29.4,22.6 28.8,22.6 "/>
<polygon class="st1" points="11,17.3 11,17.3 11.1,14.2 11.5,14 12,13.7 12.5,13.4 13,13.1 13.5,12.8 14,12.5 14.5,12.2 15,11.9 
	15.5,11.5 16,11.2 16,11.2 16.5,11.5 17,11.8 17.5,12.1 18,12.4 18.5,12.6 19,12.9 19.4,13.2 19.9,13.5 20,13.5 20.5,12.6 20,12.3 
	19.4,12 19,11.7 18.5,11.4 18,11.1 17.5,10.9 17,10.6 16.5,10.3 16,10 15.9,10 15.5,10.3 15,10.6 14.5,10.9 14,11.2 13.5,11.5 
	13,11.8 12.5,12.1 12,12.4 11.5,12.7 11,13 10.5,13.3 10,13.6 10,17.3 10.5,17.3 "/>
<polygon class="st1" points="30.5,14.5 30.2,14.3 29.9,14.1 29.7,13.9 29.4,13.7 29.2,13.5 28.9,13.2 28.6,13 28.4,12.8 28.1,12.6 
	27.9,12.5 27.8,12.6 27.6,12.9 27.3,13.2 27.2,13.3 27.3,13.4 27.6,13.6 27.8,13.8 28.1,14 28.4,14.2 28.6,14.5 28.9,14.7 
	29.2,14.9 29.3,15 29.3,19.9 29.2,20 28.9,20.2 28.6,20.3 28.4,20.5 28.1,20.7 27.8,20.8 27.6,21 27.3,21.2 27.1,21.3 26.8,21.5 
	26.5,21.6 26.3,21.8 26,22 25.7,22.1 25.5,22.3 25.2,22.5 25,22.6 25.2,23.1 25.5,23.5 25.5,23.5 25.7,23.4 26,23.3 26.3,23.1 
	26.5,22.9 26.8,22.8 27.1,22.6 27.3,22.4 27.6,22.3 27.8,22.1 28.1,22 28.4,21.8 28.6,21.6 28.9,21.5 29.2,21.3 29.4,21.1 29.7,21 
	29.9,20.8 30.2,20.7 30.5,20.5 "/>
<polyline class="st1" points="21.9,17.4 21.9,17.7 21.9,18 21.9,18.2 21.9,18.5 21.9,18.8 21.9,19.1 21.9,19.3 21.9,19.5 22,19.5 
	22.3,19.4 22.7,19.2 23,19.1 23.4,18.9 23.7,18.8 24.1,18.7 24.4,18.5 24.8,18.4 25.1,18.2 25.5,18.1 25.8,18 25.8,17.7 25.8,17.7 
	25.8,17.6 25.8,16.9 25.8,11.5 25.4,11.3 25,11.1 24.6,10.8 24.2,10.6 23.8,10.4 23.4,10.1 23,9.9 22.6,9.7 22.2,9.4 21.8,9.2 
	21.4,9 21,8.7 20.6,8.5 20.2,8.3 20,8.1 19.8,8.2 19.4,8.5 19,8.7 18.6,8.9 18.2,9.1 17.8,9.3 17.4,9.6 17.8,9.8 18.2,10 18.5,10.2 
	18.6,10.1 19,9.9 19.4,9.7 19.8,9.4 20,9.4 20.2,9.5 20.6,9.7 21,10 21.4,10.2 21.8,10.4 22.2,10.7 22.6,10.9 23,11.1 23.4,11.4 
	23.8,11.6 24.2,11.8 24.6,12.1 24.8,12.2 24.8,16.9 24.7,16.9 24.6,16.9 24.4,16.9 24.2,16.9 24.2,16.9 24,16.9 23.8,16.9 
	23.7,16.9 23.5,16.9 23.4,16.9 23.3,16.9 23.1,16.9 23,16.9 22.8,16.9 22.6,16.9 22.6,16.9 22.4,16.9 22.2,16.9 22.1,16.9 22,16.9 
	21.9,16.9 "/>
<polyline class="st1" points="21.9,19.5 25.8,18 21.9,16.9 "/>
<polyline class="st1" points="18.3,19.5 18.3,16.9 14.7,18 18.3,19.5 "/>
</svg>
