<svg xmlns="http://www.w3.org/2000/svg" viewBox="0 0 40 40"><linearGradient id="a" gradientUnits="userSpaceOnUse" x1="-189.556" y1="-729.178" x2="-152.265" y2="-729.178" gradientTransform="rotate(90 -446.568 -262.61)"><stop offset="0" stop-color="#beea2e"/><stop offset="1" stop-color="#52ba00"/></linearGradient><path d="M37 26.3V13.7c0-2.1-1.1-4.1-3-5.2L23 2.2c-1.9-1.1-4.1-1.1-6 0L6 8.5c-1.9 1.1-3 3.1-3 5.2v12.6c0 2.1 1.1 4.1 3 5.2l11 6.3c1.9 1.1 4.1 1.1 6 0l11-6.3c1.8-1.1 3-3 3-5.2z" fill="url(#a)"/><linearGradient id="b" gradientUnits="userSpaceOnUse" x1="1581.725" y1="190.625" x2="2037.875" y2="-265.525" gradientTransform="matrix(1 0 0 -1 0 42)"><stop offset="0" stop-color="#455df0"/><stop offset="1" stop-color="#345d9d"/></linearGradient><path fill="none" stroke="url(#b)" stroke-miterlimit="10" d="M1661.2-227.1h297.2V386h-297.2z"/><linearGradient id="c" gradientUnits="userSpaceOnUse" x1="1297.538" y1="500.807" x2="1708.526" y2="89.819" gradientTransform="matrix(1 0 0 -1 0 42)"><stop offset="0" stop-color="#455df0"/><stop offset="1" stop-color="#345d9d"/></linearGradient><path fill="none" stroke="url(#c)" stroke-width=".869" stroke-miterlimit="10" d="M1661.2-1.7l-454.6-276V-367h454.6z"/><path d="M11.5 26.9L18 30V17l-6.5-3v12.9zM21.7 24l6.8 2.6v-13L21.7 16v8zm-9.6-10.6l6.4 3.1L28 13l-6.3-3-9.6 3.4z" fill="#fff"/></svg>