<?xml version="1.0" encoding="utf-8"?>
<!-- Generator: Adobe Illustrator 22.0.0, SVG Export Plug-In . SVG Version: 6.00 Build 0)  -->
<svg version="1.1" id="Layer_1" xmlns="http://www.w3.org/2000/svg" xmlns:xlink="http://www.w3.org/1999/xlink" x="0px" y="0px"
	 viewBox="0 0 40 40" style="enable-background:new 0 0 40 40;" xml:space="preserve">
<style type="text/css">
	.st0{fill:url(#SVGID_1_);}
	.st1{fill:#FFFFFF;}
</style>
<linearGradient id="SVGID_1_" gradientUnits="userSpaceOnUse" x1="167.3169" y1="-1117.1785" x2="204.6086" y2="-1117.1785" gradientTransform="matrix(0 1 -1 0 -1097.1785 -166.0419)">
	<stop  offset="1.198744e-03" style="stop-color:#434D63"/>
	<stop  offset="1" style="stop-color:#181E2F"/>
</linearGradient>
<path class="st0" d="M37,26.2V13.6c0-2.1-1.1-4.1-3-5.2L23,2.1c-1.9-1.1-4.1-1.1-6,0L6,8.4c-1.9,1.1-3,3.1-3,5.2v12.6
	c0,2.1,1.1,4.1,3,5.2l11,6.3c1.9,1.1,4.1,1.1,6,0l11-6.3C35.8,30.3,37,28.4,37,26.2z"/>
<title>Asset 1</title>
<path class="st1" d="M12.8,19.5c0,0.6-0.5,1.1-1.1,1.1s-1.1-0.5-1.1-1.1c0-0.6,0.5-1.1,1.1-1.1c0,0,0,0,0,0
	C12.3,18.4,12.8,18.9,12.8,19.5 M29.9,19.5c0,0.6-0.5,1.1-1.1,1.1c-0.6,0-1.1-0.5-1.1-1.1c0-0.6,0.5-1.1,1.1-1.1c0,0,0,0,0,0
	C29.4,18.4,29.9,18.9,29.9,19.5 M21.3,23.8c0,0.6-0.5,1.1-1.1,1.1s-1.1-0.5-1.1-1.1c0-0.6,0.5-1.1,1.1-1.1c0,0,0,0,0,0
	C20.8,22.7,21.3,23.2,21.3,23.8 M17,21.7c0,0.6-0.5,1.1-1.1,1.1s-1.1-0.5-1.1-1.1c0-0.6,0.5-1.1,1.1-1.1S17,21.1,17,21.7L17,21.7
	 M25.6,21.7c0,0.6-0.5,1.1-1.1,1.1s-1.1-0.5-1.1-1.1c0-0.6,0.5-1.1,1.1-1.1c0,0,0,0,0,0C25.1,20.6,25.6,21.1,25.6,21.7 M12.4,22.8
	c0,0.4-0.3,0.7-0.7,0.7S11,23.2,11,22.8c0-0.4,0.3-0.7,0.7-0.7C12.1,22,12.4,22.4,12.4,22.8L12.4,22.8 M29.5,22.8
	c0,0.4-0.3,0.7-0.7,0.7s-0.7-0.3-0.7-0.7c0-0.4,0.3-0.7,0.7-0.7C29.2,22,29.5,22.4,29.5,22.8 M21,27.1c0,0.4-0.3,0.7-0.7,0.7
	c-0.4,0-0.7-0.3-0.7-0.7c0-0.4,0.3-0.7,0.7-0.7c0,0,0,0,0,0C20.7,26.4,21,26.7,21,27.1 M16.7,24.9c0,0.4-0.3,0.7-0.7,0.7
	c-0.4,0-0.7-0.3-0.7-0.7c0-0.4,0.3-0.7,0.7-0.7c0,0,0,0,0,0C16.3,24.2,16.7,24.5,16.7,24.9C16.7,24.9,16.7,24.9,16.7,24.9
	 M25.2,24.9c0,0.4-0.3,0.7-0.7,0.7c-0.4,0-0.7-0.3-0.7-0.7c0-0.4,0.3-0.7,0.7-0.7c0,0,0,0,0,0C24.9,24.2,25.2,24.5,25.2,24.9
	 M12.1,25.3c0,0.2-0.2,0.4-0.4,0.4c-0.2,0-0.4-0.2-0.4-0.4s0.2-0.4,0.4-0.4C11.9,25,12.1,25.1,12.1,25.3 M29.2,25.3
	c0,0.2-0.2,0.4-0.4,0.4s-0.4-0.2-0.4-0.4s0.2-0.4,0.4-0.4S29.2,25.1,29.2,25.3 M20.6,29.6c0,0.2-0.2,0.4-0.4,0.4s-0.4-0.2-0.4-0.4
	s0.2-0.4,0.4-0.4S20.6,29.4,20.6,29.6L20.6,29.6 M16.3,27.5c0,0.2-0.2,0.4-0.4,0.4c-0.2,0-0.4-0.2-0.4-0.4c0-0.2,0.2-0.4,0.4-0.4
	C16.2,27.1,16.3,27.3,16.3,27.5 M24.9,27.5c0,0.2-0.2,0.4-0.4,0.4s-0.4-0.2-0.4-0.4c0-0.2,0.2-0.4,0.4-0.4S24.9,27.3,24.9,27.5
	 M21.7,11.2c0,0.8-0.7,1.5-1.5,1.5c-0.8,0-1.5-0.7-1.5-1.5c0-0.8,0.7-1.5,1.5-1.5c0,0,0,0,0,0C21,9.8,21.7,10.4,21.7,11.2
	 M21.7,15.5c0,0.8-0.7,1.5-1.5,1.5s-1.5-0.7-1.5-1.5s0.7-1.5,1.5-1.5c0,0,0,0,0,0C21,14.1,21.7,14.7,21.7,15.5 M21.7,19.8
	c0,0.8-0.7,1.5-1.5,1.5s-1.5-0.7-1.5-1.5s0.7-1.5,1.5-1.5c0,0,0,0,0,0C21,18.3,21.7,19,21.7,19.8C21.7,19.8,21.7,19.8,21.7,19.8
	 M30.2,15.5c0,0.8-0.7,1.5-1.5,1.5s-1.5-0.7-1.5-1.5s0.7-1.5,1.5-1.5l0,0C29.6,14.1,30.2,14.7,30.2,15.5 M13.1,15.5
	c0,0.8-0.6,1.5-1.5,1.5c-0.8,0-1.5-0.6-1.5-1.5c0-0.8,0.6-1.5,1.5-1.5c0,0,0,0,0,0C12.5,14.1,13.1,14.7,13.1,15.5 M17.4,13.4
	c0,0.8-0.6,1.5-1.5,1.5c-0.8,0-1.5-0.6-1.5-1.5c0-0.8,0.6-1.5,1.5-1.5C16.8,11.9,17.4,12.6,17.4,13.4 M17.4,17.6
	c0,0.8-0.7,1.5-1.5,1.5c-0.8,0-1.5-0.7-1.5-1.5c0-0.8,0.7-1.5,1.5-1.5S17.4,16.8,17.4,17.6L17.4,17.6 M26,13.4
	c0,0.8-0.7,1.5-1.5,1.5s-1.5-0.7-1.5-1.5c0-0.8,0.7-1.5,1.5-1.5l0,0C25.3,11.9,26,12.6,26,13.4 M26,17.6c0,0.8-0.7,1.5-1.5,1.5
	s-1.5-0.7-1.5-1.5c0-0.8,0.7-1.5,1.5-1.5l0,0C25.3,16.2,26,16.8,26,17.6"/>
</svg>
