<?xml version="1.0" encoding="utf-8"?>
<!-- Generator: Adobe Illustrator 22.0.0, SVG Export Plug-In . SVG Version: 6.00 Build 0)  -->
<svg version="1.1" id="Layer_1" xmlns="http://www.w3.org/2000/svg" xmlns:xlink="http://www.w3.org/1999/xlink" x="0px" y="0px"
	 viewBox="0 0 40 40" style="enable-background:new 0 0 40 40;" xml:space="preserve">
<style type="text/css">
	.st0{fill:none;stroke:url(#SVGID_1_);stroke-miterlimit:10;}
	.st1{fill:none;stroke:url(#SVGID_2_);stroke-width:0.869;stroke-miterlimit:10;}
	.st2{fill:url(#SVGID_3_);}
	.st3{fill:#FFFFFF;}
</style>
<linearGradient id="SVGID_1_" gradientUnits="userSpaceOnUse" x1="1581.7399" y1="-148.6274" x2="2037.9077" y2="307.5405">
	<stop  offset="0" style="stop-color:#455DF0"/>
	<stop  offset="1" style="stop-color:#345D9D"/>
</linearGradient>
<rect x="1661.2" y="-227.1" class="st0" width="297.2" height="613.1"/>
<linearGradient id="SVGID_2_" gradientUnits="userSpaceOnUse" x1="1297.5162" y1="-458.8142" x2="1708.553" y2="-47.7775">
	<stop  offset="0" style="stop-color:#455DF0"/>
	<stop  offset="1" style="stop-color:#345D9D"/>
</linearGradient>
<polygon class="st1" points="1661.2,-1.7 1206.6,-277.7 1206.6,-367 1661.2,-367 "/>
<linearGradient id="SVGID_3_" gradientUnits="userSpaceOnUse" x1="20" y1="-8.7103" x2="20" y2="29.4391">
	<stop  offset="0" style="stop-color:#AF6CCE"/>
	<stop  offset="1" style="stop-color:#7D50CE"/>
</linearGradient>
<path class="st2" d="M37,26.3V13.7c0-2.1-1.1-4.1-3-5.2L23,2.2c-1.9-1.1-4.1-1.1-6,0L6,8.5c-1.9,1.1-3,3.1-3,5.2v12.6
	c0,2.1,1.1,4.1,3,5.2l11,6.3c1.9,1.1,4.1,1.1,6,0l11-6.3C35.8,30.4,37,28.5,37,26.3z"/>
<g>
	<path class="st3" d="M17.6,9.5c1.1,0,1.8,0.4,2.4,1.3c0.4-0.6,0.9-1.1,1.6-1.2c0.2-0.1,0.5-0.1,0.7-0.1c0,0,0,0,0,0.1
		c0,0.1-0.1,0.2-0.1,0.3c-0.2,0.4-0.4,0.9-0.4,1.4c-0.1,0.7,0.2,1.2,0.6,1.7c0.6,0.7,1.2,1.4,1.8,2.1c0.9,1,1.9,2,2.8,3
		c0.9,1,1.5,2.2,1.8,3.5c0.3,1.7,0,3.4-0.9,4.9c-0.5,0.8-1.2,1.6-1.9,2.2c-1.1,0.9-2.4,1.4-3.8,1.7c-0.9,0.2-1.8,0.2-2.8,0.2
		c-2.4-0.2-4.5-1-6.1-2.8c-1-1-1.6-2.3-1.9-3.7c-0.3-1.5,0-2.9,0.6-4.2c0.4-0.8,0.9-1.6,1.6-2.2c0.9-1,1.9-1.9,2.8-2.9
		c0.5-0.5,0.9-1.1,1.4-1.7c0.6-0.8,0.7-1.7,0.3-2.6c-0.1-0.2-0.2-0.4-0.3-0.6C17.7,9.7,17.6,9.6,17.6,9.5z M20,13.5
		c-0.3,0.3-0.6,0.6-0.8,0.9c0,0,0,0.1,0,0.2c0.1,0.1,0.2,0.2,0.3,0.3c1.3,1.3,2.6,2.5,3.9,3.7c0.8,0.7,1.5,1.4,2,2.4
		c0.4,0.7,0.6,1.5,0.5,2.4c-0.1,0.9-0.5,1.7-1.2,2.3c-1.2,1.2-2.7,1.7-4.3,1.8c-1.3,0.1-2.5-0.1-3.6-0.7c-1-0.5-1.9-1.2-2.4-2.3
		C14.2,24,14,23.4,14,22.8c0-0.7,0.2-1.4,0.6-2c0.6-1,1.5-1.8,2.3-2.6c0.6-0.5,1.1-1,1.7-1.6c0.1-0.1,0.1-0.2,0-0.3
		c-0.2-0.2-0.4-0.4-0.6-0.6c-0.1-0.1-0.2-0.1-0.3,0c-0.7,0.6-1.3,1.3-2,1.9c-0.8,0.7-1.5,1.4-2,2.3c-0.8,1.3-1.1,2.6-0.7,4.1
		c0.3,1.2,1,2.1,1.9,2.9c1,0.8,2.2,1.3,3.4,1.6c0.9,0.2,1.9,0.2,2.8,0.1c0.9-0.1,1.7-0.4,2.5-0.7c1.2-0.6,2.2-1.4,2.8-2.6
		c0.6-1.1,0.8-2.3,0.5-3.6c-0.2-0.8-0.6-1.5-1-2.1c-0.6-0.8-1.2-1.5-1.9-2.1c-0.7-0.7-1.5-1.4-2.2-2.1c-0.5-0.5-1-1-1.5-1.6
		C20.2,13.8,20.1,13.6,20,13.5z M17.3,20.1c-0.6,0.6-1.1,1.2-1.5,2c-0.3,0.9-0.2,1.6,0.5,2.3c0.6,0.6,1.3,1,2.1,1.2
		c1.1,0.3,2.2,0.3,3.4,0c0.9-0.3,1.7-0.7,2.2-1.5c0.3-0.5,0.5-1,0.3-1.6c-0.1-0.4-0.3-0.7-0.5-1c-0.3-0.5-0.7-0.9-1-1.2
		c-0.3,0.3-0.6,0.5-0.9,0.8c0.2,0.3,0.5,0.6,0.7,0.9c0.4,0.6,0.3,1.2-0.1,1.7c-0.2,0.3-0.5,0.4-0.8,0.6c-1,0.5-2.1,0.5-3.1,0
		c-0.3-0.1-0.6-0.3-0.9-0.6c-0.3-0.3-0.5-0.7-0.4-1.2c0.1-0.5,0.4-0.9,0.7-1.2c0.1-0.1,0.1-0.1,0.2-0.2
		C17.9,20.7,17.6,20.4,17.3,20.1z M20,23c0.3-0.1,0.6-0.2,0.9-0.2c0.1,0,0.1-0.1,0.1-0.2c-0.1-0.7-0.2-1.5-0.4-2.2
		c0-0.2,0-0.2,0.1-0.3c0.5-0.4,0.6-0.9,0.4-1.5c-0.2-0.4-0.7-0.8-1.2-0.7c-0.6,0.1-1,0.4-1.1,0.9c-0.1,0.5,0,0.9,0.5,1.3
		c0.1,0.1,0.1,0.1,0.1,0.3c-0.1,0.8-0.3,1.5-0.4,2.3c0,0.1,0,0.2,0.1,0.2C19.4,22.8,19.7,22.9,20,23z"/>
</g>
</svg>
