<?xml version="1.0" encoding="utf-8"?>
<!-- Generator: Adobe Illustrator 22.0.0, SVG Export Plug-In . SVG Version: 6.00 Build 0)  -->
<svg version="1.1" id="Layer_1" xmlns="http://www.w3.org/2000/svg" xmlns:xlink="http://www.w3.org/1999/xlink" x="0px" y="0px"
	 viewBox="0 0 40 40" style="enable-background:new 0 0 40 40;" xml:space="preserve">
<style type="text/css">
	.st0{fill:url(#SVGID_1_);}
	.st1{fill:#FFFFFF;}
</style>
<linearGradient id="SVGID_1_" gradientUnits="userSpaceOnUse" x1="-12.7831" y1="-547.1784" x2="24.5086" y2="-547.1784" gradientTransform="matrix(0 1 -1 0 -527.1784 13.9581)">
	<stop  offset="1.198744e-03" style="stop-color:#2A8BEA"/>
	<stop  offset="1" style="stop-color:#035AB7"/>
</linearGradient>
<path class="st0" d="M37,26.1V13.5c0-2.1-1.1-4.1-3-5.2L23,2c-1.9-1.1-4.1-1.1-6,0L6,8.3c-1.9,1.1-3,3.1-3,5.2v12.6
	c0,2.1,1.1,4.1,3,5.2l11,6.3c1.9,1.1,4.1,1.1,6,0l11-6.3C35.8,30.2,37,28.3,37,26.1z"/>
<g id="Layer_1-2">
	<path class="st1" d="M13.1,13.2l1.7-0.9l0.2,0.4l6.1-3.5l-0.4-0.3l-0.5-0.3L20,8.5l-10,5.8v0.2l2.8-1.6L13.1,13.2z M13.1,17
		l4.8-2.8l0.2,0.4l6.2-3.5l-0.5-0.3l-0.5-0.2l-0.2-0.1L10,17.9v0.2l2.8-1.6L13.1,17z M13.1,18.7l6.4-3.6l0.2,0.3l6.2-3.5l-0.5-0.2
		l-0.5-0.3l-0.2-0.1L10,19.7V20l2.8-1.7L13.1,18.7z M13.1,20.5l7.9-4.5l0.2,0.3l6.2-3.4L27,12.5l-0.5-0.3l-0.2-0.1L10,21.6v0.2
		l2.8-1.6L13.1,20.5z M13.1,22.3l9.5-5.5l0.2,0.4l6.2-3.5l-0.5-0.3l-0.4-0.2L27.8,13L10,23.3v0.3l2.8-1.7L13.1,22.3z M29.6,14.1
		l-0.2-0.2L10,25.2v0.2l2.8-1.6l0.3,0.4l9.5-5.6l0.2,0.4l7.2-4v-0.7L29.6,14.1z M11.3,26.6l1.6-1L13,26l9.6-5.5l0.2,0.4l7.2-4.1
		v-1.3L11,26.4L11.3,26.6z M22.6,22.3l0.2,0.4l7.2-4.2v-1.3L12.5,27.3l0.3,0.1l1.6-1l0.3,0.4 M14.4,28.3l1.7-0.9l0.2,0.4l6.4-3.7
		l0.2,0.4l7.2-4.1v-1.3l-15.9,9.1L14.4,28.3z M16,29.2l1.7-0.9l0.2,0.4l4.8-2.7l0.2,0.4l7.2-4.1v-1.4l-14.3,8.2L16,29.2z M17.3,30
		l0.3,0.2l1.7-1l0.2,0.4l3.2-1.9l0.2,0.4L30,24v-1.3L17.3,30z M19.1,31.1l1.6-1l0.3,0.4l1.7-0.9l0.2,0.4l7.2-4.1v-1.4L18.9,31
		L19.1,31.1z M22.7,10.1l-0.5-0.3l-0.5-0.2l-0.2-0.2L10,16.1v0.3l2.8-1.7l0.3,0.4l3.2-1.9l0.2,0.4L22.7,10.1z"/>
</g>
</svg>
