<?xml version="1.0" encoding="utf-8"?>
<!-- Generator: Adobe Illustrator 22.0.0, SVG Export Plug-In . SVG Version: 6.00 Build 0)  -->
<svg version="1.1" id="Layer_1" xmlns="http://www.w3.org/2000/svg" xmlns:xlink="http://www.w3.org/1999/xlink" x="0px" y="0px"
	 viewBox="0 0 40 40" style="enable-background:new 0 0 40 40;" xml:space="preserve">
<style type="text/css">
	.st0{fill:url(#SVGID_1_);}
	.st1{fill:#FFFFFF;}
</style>
<linearGradient id="SVGID_1_" gradientUnits="userSpaceOnUse" x1="-2.6039" y1="20.8216" x2="34.6878" y2="20.8216" gradientTransform="matrix(6.123234e-17 1 -1 6.123234e-17 40.8216 3.9581)">
	<stop  offset="0" style="stop-color:#00CAFF"/>
	<stop  offset="1" style="stop-color:#005FFF"/>
</linearGradient>
<path class="st0" d="M37,26.3V13.7c0-2.1-1.1-4.1-3-5.2L23,2.2c-1.9-1.1-4.1-1.1-6,0L6,8.5c-1.9,1.1-3,3.1-3,5.2v12.6
	c0,2.1,1.1,4.1,3,5.2l11,6.3c1.9,1.1,4.1,1.1,6,0l11-6.3C35.8,30.4,37,28.5,37,26.3z"/>
<g>
	<polygon class="st1" points="20.6,9.5 20.6,21.1 26.1,27.1 29.2,25.4 	"/>
	<polygon class="st1" points="19.4,9.5 10.8,25.4 13.9,27.1 19.4,21.1 	"/>
	<polygon class="st1" points="15.1,27.7 20,30.5 24.9,27.7 20,22.4 	"/>
</g>
</svg>
