<?xml version="1.0" encoding="utf-8"?>
<!-- Generator: Adobe Illustrator 22.0.0, SVG Export Plug-In . SVG Version: 6.00 Build 0)  -->
<svg version="1.1" id="Layer_1" xmlns="http://www.w3.org/2000/svg" xmlns:xlink="http://www.w3.org/1999/xlink" x="0px" y="0px"
	 viewBox="0 0 40 40" style="enable-background:new 0 0 40 40;" xml:space="preserve">
<style type="text/css">
	.st0{fill:url(#SVGID_1_);}
	.st1{fill:#FFFFFF;}
</style>
<linearGradient id="SVGID_1_" gradientUnits="userSpaceOnUse" x1="-12.5831" y1="-547.1784" x2="24.7086" y2="-547.1784" gradientTransform="matrix(0 1 -1 0 -527.1784 13.9581)">
	<stop  offset="0" style="stop-color:#00FBA7"/>
	<stop  offset="1" style="stop-color:#14CDA0"/>
</linearGradient>
<path class="st0" d="M37,26.3V13.7c0-2.1-1.1-4.1-3-5.2L23,2.2c-1.9-1.1-4.1-1.1-6,0L6,8.5c-1.9,1.1-3,3.1-3,5.2v12.6
	c0,2.1,1.1,4.1,3,5.2l11,6.3c1.9,1.1,4.1,1.1,6,0l11-6.3C35.8,30.4,37,28.5,37,26.3z"/>
<title>ftx--logo</title>
<g>
	<path class="st1" d="M31.2,15.7c-0.8-2.7-11-2-21.4,1.1c-0.1,0-0.2,0.1-0.3,0.1c7.2-1.4,12.9-0.9,13.4,0.9
		c0.6,2.1-5.9,5.8-14.1,9.8c1.3-0.3,2.6-0.7,3.9-1.1C23.1,23.5,32,18.4,31.2,15.7z"/>
</g>
</svg>
