<?xml version="1.0" encoding="utf-8"?>
<!-- Generator: Adobe Illustrator 22.0.0, SVG Export Plug-In . SVG Version: 6.00 Build 0)  -->
<svg version="1.1" id="Layer_1" xmlns="http://www.w3.org/2000/svg" xmlns:xlink="http://www.w3.org/1999/xlink" x="0px" y="0px"
	 viewBox="0 0 40 40" style="enable-background:new 0 0 40 40;" xml:space="preserve">
<style type="text/css">
	.st0{fill:url(#SVGID_1_);}
	.st1{clip-path:url(#SVGID_3_);}
	.st2{fill:#FFFFFF;}
</style>
<linearGradient id="SVGID_1_" gradientUnits="userSpaceOnUse" x1="204.5669" y1="-1117.1785" x2="167.2752" y2="-1117.1785" gradientTransform="matrix(0 1 -1 0 -1097.1785 -166.0419)">
	<stop  offset="0" style="stop-color:#DC6267"/>
	<stop  offset="0.9949" style="stop-color:#EF9343"/>
</linearGradient>
<path class="st0" d="M37,26.2V13.6c0-2.1-1.1-4.1-3-5.2L23,2.1c-1.9-1.1-4.1-1.1-6,0L6,8.4c-1.9,1.1-3,3.1-3,5.2v12.6
	c0,2.1,1.1,4.1,3,5.2l11,6.3c1.9,1.1,4.1,1.1,6,0l11-6.3C35.8,30.3,37,28.4,37,26.2z"/>
<title>Asset 1</title>
<g>
	<defs>
		<rect id="SVGID_2_" x="9" y="9" width="22" height="22"/>
	</defs>
	<clipPath id="SVGID_3_">
		<use xlink:href="#SVGID_2_"  style="overflow:visible;"/>
	</clipPath>
	<g class="st1">
		<path class="st2" d="M20,9C13.9,9,9,13.9,9,20c0,6.1,5,11,11,11c6,0,10.9-4.9,11-10.9C31,14.1,26.2,9,20,9L20,9z M20,30.1
			c-5.5,0-10.1-4.6-10.1-10.1c0-5.6,4.5-10.1,10.2-10.1c5.5,0,10.1,4.6,10,10.3C30,25.7,25.5,30.1,20,30.1L20,30.1z"/>
		<path class="st2" d="M20,29.4c-2.3,0-4.4-0.8-6.2-2.3c-0.2-0.1-0.2-0.2,0-0.4c0.4-0.4,0.4-0.4,0.9-0.1c3.2,2.6,7.8,2.5,10.9-0.2
			c0.1-0.1,0.2-0.1,0.4,0c0.5,0.5,0.5,0.5-0.1,0.9C24.2,28.7,22.2,29.4,20,29.4z"/>
		<g>
			<path class="st2" d="M28.5,19.7c0-1.8-0.7-3.7-2.1-5.3c-0.1-0.2-0.1-0.2,0-0.4c0.5-0.5,0.5-0.5,0.9,0c1.2,1.5,1.9,3.2,2,5.1
				c0.2,2.6-0.6,5-2.3,7c-0.1,0.2-0.2,0.2-0.4,0c-0.4-0.4-0.4-0.4-0.1-0.9C27.9,23.7,28.5,22,28.5,19.7L28.5,19.7z"/>
			<path class="st2" d="M20,10.6c2.4,0,4.4,0.8,6.2,2.3c0.2,0.1,0.2,0.2,0,0.4c-0.4,0.4-0.4,0.4-0.9,0c-1.4-1.1-3-1.8-4.9-1.9
				c-2.3-0.1-4.3,0.6-6,2.1c-0.1,0.1-0.2,0.1-0.4,0c-0.5-0.5-0.5-0.5,0-0.9C15.8,11.3,17.8,10.6,20,10.6L20,10.6z"/>
			<path class="st2" d="M10.6,19.9c0-2.3,0.8-4.3,2.3-6.1c0.2-0.2,0.3-0.2,0.4,0c0.4,0.4,0.4,0.4,0,0.8c-1.3,1.6-1.9,3.5-1.9,5.5
				c0,2,0.7,3.8,2,5.3c0.2,0.2,0.2,0.3,0,0.5c-0.4,0.4-0.4,0.4-0.8,0C11.3,24.2,10.6,22.2,10.6,19.9L10.6,19.9z"/>
		</g>
		<path class="st2" d="M24.4,21.2c-0.1-0.7-0.5-1.1-1.1-1.4c-0.1,0-0.2,0-0.3-0.1c0.8-0.4,0.9-1.1,0.8-1.9c-0.1-0.8-0.6-1.2-1.4-1.4
			c-0.3-0.1-0.7-0.2-1-0.2c-0.2,0-0.2-0.1-0.2-0.2c0-0.2,0-0.5,0-0.7c0-0.9,0-0.9-0.9-0.8c-0.2,0-0.2,0.1-0.2,0.2c0,0.3,0,0.6,0,0.9
			c0,0.6,0,0.6-0.6,0.6c-0.2,0-0.2-0.1-0.2-0.2c0-0.4,0-0.9,0-1.3c0-0.1,0-0.2-0.2-0.2c-0.2,0-0.5,0-0.7,0c-0.2,0-0.2,0-0.2,0.2
			c0,0.4,0,0.9,0,1.3c0,0.2,0,0.2-0.2,0.2c-0.5,0-1,0-1.5,0c-0.5,0-0.4-0.1-0.4,0.4c0,0.7,0,0.7,0.7,0.7c0.5,0,0.7,0.2,0.7,0.7
			c0,0.8,0,1.6,0,2.4c0,0.7,0,1.3,0,2c0,0.4-0.1,0.5-0.5,0.5c-0.1,0-0.3,0-0.4,0c-0.2,0-0.2,0-0.3,0.2c0,0.3-0.1,0.6-0.1,0.9
			c0,0.2,0,0.2,0.2,0.2c0.4,0,0.9,0,1.3,0c0.7,0,0.7,0,0.7,0.6c0,0.1,0,0.2,0,0.3c0,0.3-0.1,0.6,0.1,0.8c0.2,0.2,0.5,0,0.8,0.1
			c0.2,0,0.3,0,0.3-0.2c0-0.4,0-0.8,0-1.2c0-0.2,0.1-0.3,0.3-0.3c0.6,0,0.6,0,0.6,0.6c0,0.1,0,0.2,0,0.3c0,0.3-0.1,0.6,0.1,0.8
			c0.2,0.2,0.5,0,0.8,0.1c0.2,0,0.2-0.1,0.2-0.2c0-0.4,0-0.8,0-1.2c0-0.2,0-0.3,0.3-0.3c0.4,0,0.8-0.1,1.2-0.2
			C24.1,23.6,24.6,22.5,24.4,21.2L24.4,21.2z M19.3,18.4c0-0.3,0-0.6,0-0.8c0-0.1,0-0.2,0.1-0.2c0.6,0,1.1,0,1.6,0.2
			c0.5,0.2,0.7,0.5,0.7,0.9c0,0.4-0.2,0.7-0.7,0.9c-0.5,0.2-1.1,0.2-1.6,0.2c-0.2,0-0.2-0.1-0.2-0.2C19.3,19,19.3,18.7,19.3,18.4z
			 M21.9,22.5c-0.3,0.2-0.7,0.3-1.1,0.4c-0.4,0-0.8,0-1.2,0.1c-0.2,0-0.2,0-0.2-0.2c0-0.3,0-0.6,0-1h0c0-0.3,0-0.6,0-1
			c0-0.1,0-0.2,0.2-0.2c0.6,0,1.2,0,1.8,0.1c0.2,0,0.4,0.1,0.5,0.2c0.4,0.3,0.5,0.9,0.3,1.3C22.1,22.4,22,22.5,21.9,22.5L21.9,22.5z
			"/>
	</g>
</g>
</svg>
