<?xml version="1.0" encoding="utf-8"?>
<!-- Generator: Adobe Illustrator 22.0.0, SVG Export Plug-In . SVG Version: 6.00 Build 0)  -->
<svg version="1.1" id="Layer_1" xmlns="http://www.w3.org/2000/svg" xmlns:xlink="http://www.w3.org/1999/xlink" x="0px" y="0px"
	 viewBox="0 0 40 40" style="enable-background:new 0 0 40 40;" xml:space="preserve">
<style type="text/css">
	.st0{fill:url(#SVGID_1_);}
	.st1{fill:#FFFFFF;}
</style>
<linearGradient id="SVGID_1_" gradientUnits="userSpaceOnUse" x1="-12.5831" y1="-547.1784" x2="24.7086" y2="-547.1784" gradientTransform="matrix(0 1 -1 0 -527.1784 13.9581)">
	<stop  offset="1.198743e-03" style="stop-color:#4B53AB"/>
	<stop  offset="1" style="stop-color:#3D3D75"/>
</linearGradient>
<path class="st0" d="M37,26.3V13.7c0-2.1-1.1-4.1-3-5.2L23,2.2c-1.9-1.1-4.1-1.1-6,0L6,8.5c-1.9,1.1-3,3.1-3,5.2v12.6
	c0,2.1,1.1,4.1,3,5.2l11,6.3c1.9,1.1,4.1,1.1,6,0l11-6.3C35.8,30.4,37,28.5,37,26.3z"/>
<g id="Layer_2_1_">
	<g id="Layer_1-2_1_">
		<path class="st1" d="M27.9,13l-2.6,1.3l-12.7,6.5c0-0.4-0.1-0.7-0.1-1c0-4.2,3.4-7.5,7.6-7.5c1.3,0,2.5,0.4,3.7,1l1.5-0.8l0.3-0.1
			c-4.2-3.1-10-2.1-13,2c-1.1,1.6-1.8,3.5-1.8,5.4c0,0.3,0,0.4,0,0.7c0.1,0.7-0.4,1.3-0.9,1.7l-0.8,0.4v1.9l2.4-1.2l0,0l0.8-0.4
			l0.8-0.4l0,0l13.4-6.8L28,15l3.2-1.6v-1.9L27.9,13z"/>
		<path class="st1" d="M31,15.1l-17.3,8.8l-1.5,0.8l-3.1,1.6v1.9l3.1-1.6l2.6-1.3l12.7-6.5c0,0.4,0.1,0.7,0.1,1
			c0,4.2-3.4,7.5-7.6,7.5c-1.3,0-2.5-0.4-3.7-1l-0.1,0.1l-1.7,0.9c4.1,3,9.9,2.1,13-2c1.1-1.6,1.8-3.5,1.8-5.4c0-0.3,0-0.4,0-0.7
			c-0.1-0.7,0.4-1.3,0.9-1.7l0.8-0.4V15.1z"/>
	</g>
</g>
</svg>
