<?xml version="1.0" encoding="utf-8"?>
<!-- Generator: Adobe Illustrator 22.0.0, SVG Export Plug-In . SVG Version: 6.00 Build 0)  -->
<svg version="1.1" id="Layer_1" xmlns="http://www.w3.org/2000/svg" xmlns:xlink="http://www.w3.org/1999/xlink" x="0px" y="0px"
	 viewBox="0 0 40 40" style="enable-background:new 0 0 40 40;" xml:space="preserve">
<style type="text/css">
	.st0{fill:url(#SVGID_1_);}
	.st1{fill:#FFFFFF;}
</style>
<linearGradient id="SVGID_1_" gradientUnits="userSpaceOnUse" x1="167.3169" y1="-1117.1785" x2="204.6086" y2="-1117.1785" gradientTransform="matrix(0 1 -1 0 -1097.1785 -166.0419)">
	<stop  offset="1.198744e-03" style="stop-color:#F26822"/>
	<stop  offset="1" style="stop-color:#AE4A03"/>
</linearGradient>
<path class="st0" d="M37,26.2V13.6c0-2.1-1.1-4.1-3-5.2L23,2.1c-1.9-1.1-4.1-1.1-6,0L6,8.4c-1.9,1.1-3,3.1-3,5.2v12.6
	c0,2.1,1.1,4.1,3,5.2l11,6.3c1.9,1.1,4.1,1.1,6,0l11-6.3C35.8,30.3,37,28.4,37,26.2z"/>
<title>Asset 1</title>
<path id="_149931032" class="st1" d="M20.2,9.9c-5.5,0-10,4.5-10,10c0,1.1,0.2,2.2,0.5,3.2h3v-8.4l6.5,6.5l6.5-6.5v8.4h3
	c0.3-1,0.5-2.1,0.5-3.2C30.2,14.4,25.7,9.9,20.2,9.9L20.2,9.9z"/>
<path id="_149931160" class="st1" d="M18.7,22.6l-2.8-2.8v5.3h-2.2l-2,0c1.8,2.9,4.9,4.8,8.5,4.8s6.8-1.9,8.5-4.8h-4.2v-5.3
	l-2.8,2.8l-1.5,1.5L18.7,22.6L18.7,22.6L18.7,22.6z"/>
</svg>
