<?xml version="1.0" encoding="utf-8"?>
<!-- Generator: Adobe Illustrator 22.0.0, SVG Export Plug-In . SVG Version: 6.00 Build 0)  -->
<svg version="1.1" id="Layer_1" xmlns="http://www.w3.org/2000/svg" xmlns:xlink="http://www.w3.org/1999/xlink" x="0px" y="0px"
	 viewBox="0 0 40 40" style="enable-background:new 0 0 40 40;" xml:space="preserve">
<style type="text/css">
	.st0{fill:url(#SVGID_1_);}
	.st1{fill:#FFFFFF;}
</style>
<linearGradient id="SVGID_1_" gradientUnits="userSpaceOnUse" x1="-12.5831" y1="-547.1784" x2="24.7086" y2="-547.1784" gradientTransform="matrix(0 1 -1 0 -527.1784 13.9581)">
	<stop  offset="0" style="stop-color:#FBD033"/>
	<stop  offset="0.9988" style="stop-color:#F4AA26"/>
</linearGradient>
<path class="st0" d="M37,26.3V13.7c0-2.1-1.1-4.1-3-5.2L23,2.2c-1.9-1.1-4.1-1.1-6,0L6,8.5c-1.9,1.1-3,3.1-3,5.2v12.6
	c0,2.1,1.1,4.1,3,5.2l11,6.3c1.9,1.1,4.1,1.1,6,0l11-6.3C35.8,30.4,37,28.5,37,26.3z"/>
<title>ftx--logo</title>
<g>
	<path class="st1" d="M20,30.9c-1.5,0-2.9-0.3-4.2-0.9c-2.6-1.1-4.7-3.2-5.8-5.8c-0.6-1.3-0.9-2.8-0.9-4.2c0-1.5,0.3-2.9,0.9-4.2
		c1.7-4,5.6-6.6,10-6.6c1.5,0,2.9,0.3,4.2,0.9c4,1.7,6.6,5.6,6.6,10c0,1.5-0.3,2.9-0.9,4.2c-1.1,2.6-3.2,4.7-5.8,5.8
		C22.9,30.6,21.5,30.9,20,30.9z M20,11.6c-2.3,0-4.4,0.9-6,2.5s-2.5,3.7-2.5,6s0.9,4.4,2.5,6s3.7,2.5,6,2.5s4.4-0.9,6-2.5
		s2.5-3.7,2.5-6s-0.9-4.4-2.5-6C24.4,12.4,22.3,11.6,20,11.6L20,11.6L20,11.6z"/>
	<path class="st1" d="M19.3,22.7H24v2.4h-2.9c0,0.7,0.1,1.3,0.1,2h-2.4v-2h-2.9c0-0.8-0.1-1.5,0-2.3c0.1-0.4,0.5-0.7,0.8-1.1
		c0.9-1.1,1.8-2.1,2.8-3.2c0.4-0.4,0.7-0.8,1.1-1.3h-4.5v-2.4h2.7v-2h2.3v1.9H24c0,0.8,0.1,1.6,0,2.3c-0.1,0.4-0.5,0.7-0.8,1.1
		c-0.9,1.1-1.8,2.1-2.8,3.2C19.9,21.9,19.7,22.2,19.3,22.7"/>
</g>
</svg>
