<?xml version="1.0" encoding="utf-8"?>
<!-- Generator: Adobe Illustrator 22.0.0, SVG Export Plug-In . SVG Version: 6.00 Build 0)  -->
<svg version="1.1" id="Layer_1" xmlns="http://www.w3.org/2000/svg" xmlns:xlink="http://www.w3.org/1999/xlink" x="0px" y="0px"
	 viewBox="0 0 40 40" style="enable-background:new 0 0 40 40;" xml:space="preserve">
<style type="text/css">
	.st0{fill:url(#SVGID_1_);}
	.st1{fill:#FFFFFF;}
	.st2{fill:#F4F4F4;}
	.st3{fill:#E8E8E8;}
	.st4{fill:#F2F2F2;}
</style>
<linearGradient id="SVGID_1_" gradientUnits="userSpaceOnUse" x1="-12.5831" y1="-547.1784" x2="24.7086" y2="-547.1784" gradientTransform="matrix(0 1 -1 0 -527.1784 13.9581)">
	<stop  offset="0" style="stop-color:#00C1BE"/>
	<stop  offset="0.9988" style="stop-color:#007B8F"/>
</linearGradient>
<path class="st0" d="M37,26.3V13.7c0-2.1-1.1-4.1-3-5.2L23,2.2c-1.9-1.1-4.1-1.1-6,0L6,8.5c-1.9,1.1-3,3.1-3,5.2v12.6
	c0,2.1,1.1,4.1,3,5.2l11,6.3c1.9,1.1,4.1,1.1,6,0l11-6.3C35.8,30.4,37,28.5,37,26.3z"/>
<title>ftx--logo</title>
<rect x="12.7" y="14.2" transform="matrix(0.8885 0.459 -0.459 0.8885 9.0455 -7.2788)" class="st1" width="13.6" height="1.5"/>
<rect x="12.9" y="11.2" class="st1" width="1" height="0.7"/>
<rect x="24.2" y="15.4" class="st2" width="2.8" height="1.3"/>
<rect x="22.5" y="17.5" class="st1" width="1.7" height="2"/>
<rect x="24.1" y="27.1" class="st1" width="0.1" height="2.9"/>
<g>
	<path class="st2" d="M12.9,11.2l11.3,5.5l2.9-1.3L15.8,10L12.9,11.2z"/>
	<path class="st3" d="M24.2,16.7l2.9-1.3v2.8l-2.9,1.3"/>
	<path class="st1" d="M12.9,11.2v2.9l7.8,3.8l-7.8,3.8v3L24.2,30v-2.9l-7.7-3.7l7.7-3.9v-2.9L12.9,11.2z"/>
	<path class="st4" d="M24.2,30l2.9-1.3v-9L24.2,21V30z"/>
</g>
</svg>
